<?xml version="1.0" encoding="UTF-8" standalone="no"?>
<svg width="8px" height="14px" viewBox="0 0 8 14" version="1.1" xmlns="http://www.w3.org/2000/svg" xmlns:xlink="http://www.w3.org/1999/xlink">
    <!-- Generator: Sketch 39.1 (31720) - http://www.bohemiancoding.com/sketch -->
    <title>Иконка - Проживание</title>
    <desc>Created with Sketch.</desc>
    <defs></defs>
    <g id="Результат-поиска-и-Подробнее" stroke="none" stroke-width="1" fill="none" fill-rule="evenodd">
        <g id="DP---Результаты-поиска-Авиа" transform="translate(-1270.000000, -473.000000)" fill="#9CA6B0">
            <g id="Group-4" transform="translate(1266.000000, 424.000000)">
                <g id="Иконка---Проживание" transform="translate(0.000000, 48.000000)">
                    <g id="Иконка---Заглушка-номера-отеля-Copy" transform="translate(4.000000, 1.000000)">
                        <g id="Group">
                            <path d="M3.93563218,0 C1.71034483,0 0.0551724138,1.41164241 0.0183908046,3.15800416 L0.0183908046,3.24532225 C0.0183908046,3.27442827 -0.0367816092,3.66735967 0.588505747,3.65280665 C1.17701149,3.63825364 1.15862069,3.27442827 1.15862069,3.27442827 C1.15862069,2.03742204 2.4091954,1.04781705 3.95402299,1.04781705 C5.49885057,1.04781705 6.76781609,2.05197505 6.76781609,3.27442827 C6.76781609,4.51143451 5.57241379,5.5010395 4.0091954,5.5010395 C4.0091954,5.5010395 0,5.61746362 0,8.65904366 L0,13.1704782 C0,13.5925156 0.367816092,14 1.01149425,14 L6.82298851,14 C7.46666667,14 7.94482759,13.5779626 7.9816092,13.1995842 L8,3.21621622 C8,1.44074844 6.17931034,0 3.93563218,0 Z M7,12 L1,12 L1,11 L7,11 L7,12 L7,12 Z M6.98013245,10 L1,10 L1,9 L7,9 L7,10 L6.98013245,10 Z" id="Shape"></path>
                        </g>
                    </g>
                </g>
            </g>
        </g>
    </g>
</svg>