<?xml version="1.0" encoding="UTF-8"?>
<svg width="14px" height="14px" viewBox="0 0 14 14" version="1.1" xmlns="http://www.w3.org/2000/svg" xmlns:xlink="http://www.w3.org/1999/xlink">
    <!-- Generator: Sketch 40.3 (33839) - http://www.bohemiancoding.com/sketch -->
    <title>Иконка - Длинная пересадка</title>
    <desc>Created with Sketch.</desc>
    <defs></defs>
    <g id="Авиабилеты" stroke="none" stroke-width="1" fill="none" fill-rule="evenodd">
        <g id="Результаты-поиска---Авиабилеты---Подробнее" transform="translate(-513.000000, -926.000000)" fill="#9CA6B0">
            <g id="Иконка---Длинная-пересадка" transform="translate(512.000000, 925.000000)">
                <g id="Group-4">
                    <g transform="translate(1.000000, 1.000000)">
                        <path d="M7,14 C10.8541176,14 14,10.8541176 14,7 C14,3.14588235 10.8541176,0 7,0 C3.14588235,0 0,3.14588235 0,7 C0,10.8541176 3.14588235,14 7,14 L7,14 Z M7,1 C10.312,1 13,3.688 13,7 C13,10.312 10.312,13 7,13 C3.688,13 1,10.312 1,7 C1,3.688 3.688,1 7,1 L7,1 Z" id="Shape"></path>
                        <polygon id="Shape" points="10.2941176 6.50588235 7.41176471 6.50588235 7.41176471 1.97647059 6.58823529 1.97647059 6.58823529 7.32941176 10.2941176 7.32941176"></polygon>
                    </g>
                </g>
            </g>
        </g>
    </g>
</svg>