<?xml version="1.0" encoding="UTF-8" standalone="no"?>
<svg width="16px" height="16px" viewBox="0 0 16 16" version="1.1" xmlns="http://www.w3.org/2000/svg" xmlns:xlink="http://www.w3.org/1999/xlink">
    <!-- Generator: Sketch 39.1 (31720) - http://www.bohemiancoding.com/sketch -->
    <title>Иконка - Самолет 24 Gray</title>
    <desc>Created with Sketch.</desc>
    <defs></defs>
    <g id="Результат-поиска-и-Подробнее" stroke="none" stroke-width="1" fill="none" fill-rule="evenodd">
        <g id="DP---Результаты-поиска-Отель" transform="translate(-977.000000, -270.000000)" fill="#778695">
            <g id="Group-5" transform="translate(864.000000, 258.000000)">
                <g id="Group-8" transform="translate(109.000000, 0.000000)">
                    <g id="Иконка---Самолет-24-Gray" transform="translate(0.000000, 8.000000)">
                        <g id="Иконка---Самолет-24-Blue">
                            <path d="M18.9321952,4.11753421 L14.1821404,8.04686691 L5.28154729,6.8449532 C5.16625439,6.82184082 5.05096149,6.86806862 4.98178757,6.9374088 L4.10556334,7.81573094 C3.92109653,8.00063911 3.9902674,8.3011183 4.22085321,8.3935739 L7.37987444,9.78039577 L7.1492856,10.0115348 C6.91870283,10.2426738 6.91870283,10.6124901 7.1492856,10.8436291 C7.37987444,11.0747681 7.74881111,11.0747651 7.97939691,10.8436291 L8.53280041,10.2889016 L10.9078263,11.3290165 L7.47210754,15.6512858 L4.86649345,15.11967 C4.75120146,15.0965567 4.63590887,15.1427842 4.54367546,15.2121259 L4.29003177,15.4663772 C4.1286208,15.6281721 4.17473913,15.9286519 4.38226451,16.0442193 L6.80340932,17.2461331 L8.00245401,19.6730762 C8.11774639,19.8811003 8.39444838,19.9504402 8.57891672,19.7655305 L8.83255982,19.5112798 C8.92479566,19.4188264 8.94785303,19.3032559 8.92479323,19.1876867 L8.39445014,16.5758363 L12.6833327,13.1087762 L13.6748498,15.3739232 L13.0983883,15.9517662 C12.8678025,16.1829022 12.8678025,16.5527185 13.0983883,16.7838605 C13.3289741,17.0149965 13.6979084,17.0149971 13.9284963,16.7838572 L14.1821404,16.5296061 L15.6117669,19.7886451 C15.7040006,20.0197829 16.0037622,20.0660095 16.1882308,19.9042125 L17.0644547,19.02589 C17.1336297,18.9565509 17.1797469,18.8409811 17.1566872,18.7254145 L15.9576468,9.80351119 L19.8775933,5.04208111 C19.9237123,4.99585331 19.9467703,4.92651313 19.9467703,4.83405753 L19.9928862,4.34867017 C20.0390021,4.16375897 19.8545353,3.97885081 19.6239526,4.00196318 L19.1397199,4.04819099 C19.070546,4.04819099 19.0013691,4.07130337 18.9321952,4.11753421 Z" id="Page-1"></path>
                        </g>
                    </g>
                </g>
            </g>
        </g>
    </g>
</svg>