<?xml version="1.0" encoding="UTF-8"?>
<svg width="250px" height="40px" viewBox="0 0 250 40" version="1.1" xmlns="http://www.w3.org/2000/svg" xmlns:xlink="http://www.w3.org/1999/xlink">
    <!-- Generator: Sketch 41 (35326) - http://www.bohemiancoding.com/sketch -->
    <title>logo_INNA TOUR big</title>
    <desc>Created with Sketch.</desc>
    <defs></defs>
    <g id="Личный-кабинет" stroke="none" stroke-width="1" fill="none" fill-rule="evenodd">
        <g id="О-компании" transform="translate(-480.000000, -9.000000)">
            <g id="logo_INNA-TOUR-big" transform="translate(480.000000, 9.000000)">
                <g>
                    <path d="M50.7792969,36 C23.8810427,36 2.07543945,28.2734272 2.07543945,18.7426711 C2.07543945,9.21191494 23.8810427,1.48534211 50.7792969,1.48534211 C77.6775511,1.48534211 99.4831543,9.21191494 99.4831543,18.7426711 C99.4831543,28.2734272 77.6775511,36 50.7792969,36 Z" id="Fill-1" fill="#FFFFFF"></path>
                    <path d="M82.7773437,29.9173961 C81.1572266,29.9173961 80.6474609,28.8091272 80.6474609,28.8091272 L78.4326172,23.6968216 L73.7773437,23.6968216 C73.7773437,23.6968216 73.5800781,29.9173961 69.1796875,29.9173961 C65.2617188,29.9173961 63.7871094,27.1613835 63.7871094,27.1613835 L56.9169922,17.6189343 C56.9169922,17.6189343 56.6914062,17.276876 56.4072266,17.276876 C56.1220703,17.276876 56.0654297,17.7323022 56.0654297,17.7323022 L56.0654297,27.5601258 C56.0654297,27.5601258 56.1796875,29.9476927 53.9648437,29.9476927 C51.8652344,29.9476927 51.6953125,27.6168097 51.6953125,27.6168097 L51.6953125,14.4954534 C51.6953125,14.4954534 51.8085938,11.2840146 54.7041016,11.2840146 C57.5429687,11.2840146 58.6767578,13.1878134 58.6767578,13.1878134 L67.4199219,25.1158749 C67.4199219,25.1158749 67.7617188,25.627985 68.6123047,25.627985 C69.6347656,25.627985 69.6347656,24.2656157 69.6347656,24.2656157 L69.6347656,14.4954534 C69.6347656,14.4954534 69.9169922,11.2840146 73.3251953,11.2840146 C78.09375,11.2840146 79.0585937,14.6088213 79.0585937,14.6088213 L84.1953125,27.4467579 C84.1953125,27.4467579 84.7910156,29.9173961 82.7773437,29.9173961 L82.7773437,29.9173961 Z M49.9541016,26.0267273 C49.9541016,26.0267273 49.8212891,29.9173961 45.9326172,29.9173961 C41.5429688,29.9173961 39.6416016,26.7245262 39.6416016,26.7245262 L33.2832031,17.8652163 C33.2832031,17.8652163 32.9609375,17.33356 32.6005859,17.33356 C32.1376953,17.33356 32.2236328,17.8652163 32.2236328,17.8652163 L32.2236328,24.8041132 C32.2236328,24.8041132 31.7675781,29.9858078 26.0341797,29.9858078 C20.1884766,29.9858078 19.8085938,24.6829268 19.8085938,24.6829268 L19.8085938,12.9425087 C19.8085938,12.9425087 20.1503906,11.2752188 21.8916016,11.2752188 C23.6318359,11.2752188 23.9726563,12.9620549 23.9726563,12.9620549 L23.9726563,24.0760177 C23.9726563,24.0760177 24.1611328,25.9700433 26.0908203,25.9700433 C28.0214844,25.9700433 28.0595703,24.0760177 28.0595703,24.0760177 L28.0595703,14.4954534 C28.0595703,14.4954534 27.8339844,11.2752188 30.859375,11.2752188 C33.6416016,11.2752188 34.6064453,13.1878134 34.6064453,13.1878134 L43.2744141,24.6829268 C43.2744141,24.6829268 43.7275391,25.5146171 44.7871094,25.5146171 C45.8466797,25.5146171 45.7714844,24.3037308 45.7714844,24.3037308 L45.7714844,13.5464859 C45.7714844,13.5464859 45.7900391,11.2752188 47.9101562,11.2752188 C50.0302734,11.2752188 49.9541016,13.3969576 49.9541016,13.3969576 L49.9541016,26.0267273 L49.9541016,26.0267273 Z M22.0048828,5.68794085 C23.3525391,5.68794085 24.4453125,6.78252741 24.4453125,8.13121441 C24.4453125,9.48087873 23.3525391,10.574488 22.0048828,10.574488 C20.65625,10.574488 19.5625,9.48087873 19.5625,8.13121441 C19.5625,6.78252741 20.65625,5.68794085 22.0048828,5.68794085 L22.0048828,5.68794085 Z M50.5625,0.789666015 C22.9755859,0.789666015 0.815429688,9.67047676 0.815429688,20.372015 C0.815429688,31.0735532 23.1806641,39.7491289 50.7675781,39.7491289 C78.3554688,39.7491289 100.720703,31.0735532 100.720703,20.372015 C100.720703,9.67047676 78.1503906,0.789666015 50.5625,0.789666015 L50.5625,0.789666015 Z" id="Fill-2" fill="#7CB621"></path>
                    <path d="M74.3466797,15.4023965 C73.8632812,15.4023965 73.7773438,16.0855358 73.7773438,16.0855358 L73.7773438,20.4609501 L77.0146484,20.4609501 L75.3974609,16.0571938 C75.3974609,16.0571938 75.3115234,15.4023965 74.3466797,15.4023965" id="Fill-3" fill="#7CB621"></path>
                    <polyline id="Fill-4" fill="#7CB621" points="118.805664 23.1456191 126.348633 12.7490014 126.348633 12.1157049 124.353516 12.1157049 124.353516 10.6546273 132.066406 10.6546273 132.066406 12.1157049 130.022461 12.1157049 130.022461 26.5065862 132.066406 26.5065862 132.066406 27.9422538 124.353516 27.9422538 124.353516 26.5065862 126.348633 26.5065862 126.348633 15.1834792 118.805664 25.5556641 118.805664 26.5065862 120.849609 26.5065862 120.849609 27.9422538 113.112305 27.9422538 113.112305 26.5065862 115.131836 26.5065862 115.131836 12.1157049 113.112305 12.1157049 113.112305 10.6546273 120.849609 10.6546273 120.849609 12.1157049 118.805664 12.1157049 118.805664 23.1456191"></polyline>
                    <polyline id="Fill-5" fill="#7CB621" points="139.875977 19.5168692 139.875977 26.5065862 141.895508 26.5065862 141.895508 27.9422538 134.15918 27.9422538 134.15918 26.5065862 136.15332 26.5065862 136.15332 12.1157049 134.15918 12.1157049 134.15918 10.6546273 141.895508 10.6546273 141.895508 12.1157049 139.875977 12.1157049 139.875977 18.0079035 147.613281 18.0079035 147.613281 12.1157049 145.59375 12.1157049 145.59375 10.6546273 153.331055 10.6546273 153.331055 12.1157049 151.311523 12.1157049 151.311523 26.5065862 153.331055 26.5065862 153.331055 27.9422538 145.59375 27.9422538 145.59375 26.5065862 147.613281 26.5065862 147.613281 19.5168692 139.875977 19.5168692"></polyline>
                    <polyline id="Fill-6" fill="#7CB621" points="161.214844 19.5168692 161.214844 26.5065862 163.234375 26.5065862 163.234375 27.9422538 155.49707 27.9422538 155.49707 26.5065862 157.492188 26.5065862 157.492188 12.1157049 155.49707 12.1157049 155.49707 10.6546273 163.234375 10.6546273 163.234375 12.1157049 161.214844 12.1157049 161.214844 18.0079035 168.952148 18.0079035 168.952148 12.1157049 166.932617 12.1157049 166.932617 10.6546273 174.669922 10.6546273 174.669922 12.1157049 172.650391 12.1157049 172.650391 26.5065862 174.669922 26.5065862 174.669922 27.9422538 166.932617 27.9422538 166.932617 26.5065862 168.952148 26.5065862 168.952148 19.5168692 161.214844 19.5168692"></polyline>
                    <path d="M183.258789,14.4534291 L180.265625,21.7578397 L186.737305,21.7578397 L183.501953,14.4534291 L183.453125,13.8680207 L183.331055,13.8680207 L183.258789,14.4534291 L183.258789,14.4534291 Z M187.321289,23.1700518 L179.730469,23.1700518 L178.416992,26.5065862 L180.265625,26.5065862 L180.265625,27.9422538 L175.058594,27.9422538 L175.058594,26.5065862 L176.980469,26.5065862 L183.404297,10.6546273 L185.520508,10.6546273 L192.601563,26.5065862 L194.547852,26.5065862 L194.499023,27.9422538 L186.737305,27.9422538 L186.737305,26.5065862 L188.732422,26.5065862 L187.321289,23.1700518 L187.321289,23.1700518 Z" id="Fill-7" fill="#7CB621"></path>
                    <polygon id="Fill-8" fill="#7CB621" points="206.567383 27.9422538 206.567383 26.5065862 208.585938 26.5065862 208.585938 12.1157049 204.401367 12.1157049 204.401367 13.9413189 202.844727 13.9413189 202.844727 10.6546273 218.026367 10.6546273 218.026367 13.9413189 216.420898 13.9413189 216.420898 12.1157049 212.285156 12.1157049 212.285156 26.5065862 214.279297 26.5065862 214.279297 27.9422538 210.459961 27.9422538"></polygon>
                    <path d="M228.124023,20.0778448 L231.652344,12.1157049 L229.681641,12.1157049 L229.681641,10.6546273 L235.009766,10.6546273 L235.009766,12.1157049 L233.087891,12.1157049 L227.199219,25.410045 C226.826172,26.3199201 226.424805,27.0167417 225.995117,27.5044191 C225.56543,27.9911192 224.887695,28.2344693 223.963867,28.2344693 C223.087891,28.2344693 222.34082,28.0390074 221.724609,27.6500382 L222.74707,25.2888587 C223.476562,25.8244242 224.052734,26.0912297 224.474609,26.0912297 C225.107422,26.0912297 225.609375,25.7188748 225.982422,24.9722104 L226.202148,24.3389139 L219.924805,12.1157049 L218.391602,12.1157049 L218.391602,10.6546273 L225.714844,10.6546273 L225.714844,12.1157049 L223.647461,12.1157049 L227.783203,20.0778448 L227.880859,20.7111413 L228.026367,20.7111413 L228.124023,20.0778448" id="Fill-9" fill="#7CB621"></path>
                    <path d="M241.797852,20.0289793 C242.365234,20.0934818 243.001953,20.0495028 243.708008,19.895088 C244.413086,19.7406731 245.041992,19.3389989 245.59375,18.6900654 C246.144531,18.041132 246.396484,17.0423217 246.347656,15.6946121 C246.298828,14.2501487 245.832031,13.2679527 244.948242,12.7490014 C244.064453,12.2290728 243.014648,12.017974 241.797852,12.1157049 L241.797852,20.0289793 L241.797852,20.0289793 Z M241.797852,21.3434605 L241.797852,26.5065862 L243.866211,26.5065862 L243.866211,27.9422538 L236.080078,27.9422538 L236.080078,26.5065862 L238.075195,26.5065862 L238.075195,12.1157049 L236.080078,12.1157049 L236.080078,10.6546273 L242.576172,10.6546273 C244.652344,10.6546273 246.400391,10.9800714 247.819336,11.6280275 C249.238281,12.2779383 249.948242,13.6901504 249.948242,15.8646639 C249.980469,16.6611711 249.863281,17.4039262 249.595703,18.0929294 C249.328125,18.7829098 248.890625,19.3800459 248.282227,19.8823829 C247.673828,20.3866746 246.84668,20.7678253 245.799805,21.0277896 C244.753906,21.2877539 243.419922,21.3933033 241.797852,21.3434605 L241.797852,21.3434605 Z" id="Fill-10" fill="#7CB621"></path>
                </g>
            </g>
        </g>
    </g>
</svg>