<?xml version="1.0" encoding="UTF-8"?>
<svg width="8px" height="5px" viewBox="0 0 8 5" version="1.1" xmlns="http://www.w3.org/2000/svg" xmlns:xlink="http://www.w3.org/1999/xlink">
    <!-- Generator: Sketch 40.3 (33839) - http://www.bohemiancoding.com/sketch -->
    <title>Иконка - Развернуть вниз White</title>
    <desc>Created with Sketch.</desc>
    <defs></defs>
    <g id="Авиабилеты" stroke="none" stroke-width="1" fill="none" fill-rule="evenodd">
        <g id="Результаты-поиска---Авиабилеты---Подробнее" transform="translate(-980.000000, -1434.000000)" fill="#778695">
            <g id="Group-3-Copy" transform="translate(757.000000, 1426.000000)">
                <g id="Иконка---Развернуть-вниз-White" transform="translate(223.000000, 6.000000)">
                    <g id="">
                        <path d="M8,2.71305842 C8,2.6443299 7.96793587,2.56701031 7.91983968,2.51546392 L7.51903808,2.08591065 C7.47094188,2.03436426 7.3987976,2 7.33466934,2 C7.27054108,2 7.19839679,2.03436426 7.1503006,2.08591065 L4,5.46219931 L0.849699399,2.08591065 C0.801603206,2.03436426 0.729458918,2 0.665330661,2 C0.593186373,2 0.529058116,2.03436426 0.480961924,2.08591065 L0.0801603206,2.51546392 C0.0320641283,2.56701031 0,2.6443299 0,2.71305842 C0,2.78178694 0.0320641283,2.85910653 0.0801603206,2.91065292 L3.81563126,6.91408935 C3.86372745,6.96563574 3.93587174,7 4,7 C4.06412826,7 4.13627255,6.96563574 4.18436874,6.91408935 L7.91983968,2.91065292 C7.96793587,2.85910653 8,2.78178694 8,2.71305842 L8,2.71305842 Z"></path>
                    </g>
                </g>
            </g>
        </g>
    </g>
</svg>