<?xml version="1.0" encoding="UTF-8" standalone="no"?>
<svg width="12px" height="14px" viewBox="0 0 12 14" version="1.1" xmlns="http://www.w3.org/2000/svg" xmlns:xlink="http://www.w3.org/1999/xlink">
    <!-- Generator: Sketch 39.1 (31720) - http://www.bohemiancoding.com/sketch -->
    <title>Иконка - Топливный сбор</title>
    <desc>Created with Sketch.</desc>
    <defs></defs>
    <g id="Результат-поиска-и-Подробнее" stroke="none" stroke-width="1" fill="none" fill-rule="evenodd">
        <g id="DP---Результаты-поиска-Авиа" transform="translate(-1268.000000, -521.000000)" fill="#9CA6B0">
            <g id="Group-4" transform="translate(1266.000000, 424.000000)">
                <g id="Иконка---Топливный-сбор" transform="translate(0.000000, 96.000000)">
                    <g id="noun_353517_cc" transform="translate(2.000000, 1.000000)">
                        <g id="Group">
                            <rect id="Rectangle-4" x="0" y="13" width="9" height="1"></rect>
                            <path d="M9,12 L0,12 L0,1 C0,0.469114909 0.543624161,0 1.125,0 L7.875,0 C8.45598361,0 9,0.469114909 9,1 L9,12 Z M1,2.0093689 C1,1.45190985 1.43788135,1 2.00292933,1 L6.99707067,1 C7.55097324,1 8,1.44335318 8,2.0093689 L8,3.9906311 C8,4.54809015 7.56211865,5 6.99707067,5 L2.00292933,5 C1.44902676,5 1,4.55664682 1,3.9906311 L1,2.0093689 Z" id="Shape"></path>
                            <path d="M9.82871642,11.498725 C9.82871642,11.86955 10.136597,12.17055 10.5161194,12.17055 C10.8956418,12.17055 11.2038806,11.86955 11.2038806,11.498725 L11.2038806,5.668775 L11.6229851,5.668775 L11.6229851,11.498725 C11.6229851,12.097225 11.1272239,12.581275 10.5161194,12.581275 C9.90501493,12.581275 9.4081791,12.097225 9.4081791,11.498725 L9.4081791,8.583925 L9.82871642,8.583925 L9.82871642,11.498725 L9.82871642,11.498725 Z" id="Shape"></path>
                            <path d="M9.41355224,1.759625 L10.9936119,3.3509 L10.9936119,4.6683 C10.9936119,4.89475 11.182209,5.077625 11.413791,5.077625 C11.6442985,5.077625 11.8328955,4.89475 11.8328955,4.6683 L11.8328955,3.01875 L10.0158806,1.1886 C9.85540299,1.025675 9.58907463,1.0206 9.42358209,1.178625 C9.25683582,1.33665 9.25289552,1.5967 9.41355224,1.759625 L9.41355224,1.759625 Z" id="Shape"></path>
                        </g>
                    </g>
                </g>
            </g>
        </g>
    </g>
</svg>