<?xml version="1.0" encoding="UTF-8"?>
<svg width="24px" height="24px" viewBox="0 0 24 24" version="1.1" xmlns="http://www.w3.org/2000/svg" xmlns:xlink="http://www.w3.org/1999/xlink">
    <!-- Generator: Sketch 40.3 (33839) - http://www.bohemiancoding.com/sketch -->
    <title>Иконка - Отели на карте 25 Blue</title>
    <desc>Created with Sketch.</desc>
    <defs></defs>
    <g id="Symbols" stroke="none" stroke-width="1" fill="none" fill-rule="evenodd">
        <g id="Фон---Иконки" transform="translate(-350.000000, -129.000000)" fill="#FFFFFF">
            <rect id="Rectangle-3" x="0" y="0" width="1000" height="468"></rect>
        </g>
        <g id="Иконка---Отели-на-карте-25-Blue" fill="#0054B9">
            <g id="Group-10">
                <g transform="translate(1.000000, 0.000000)">
                    <g id="Group">
                        <circle id="Oval" cx="8.5" cy="8.5" r="2.5"></circle>
                        <path d="M15.6680912,12.8269231 C15.8133903,12.8269231 15.9344729,12.8269231 16.0555556,12.8514957 C16.6125356,11.4262821 17,10.0010684 17,8.64957265 C17,3.85790598 13.1980057,0 8.5,0 C3.8019943,0 0,3.85790598 0,8.625 C0,14.1784188 6.12678063,21.0833333 7.0954416,22.1399573 C7.48290598,22.582265 7.82193732,23 8.52421652,23 C9.2022792,23 9.54131054,22.582265 9.95299145,22.1399573 C10.0740741,22.017094 10.2678063,21.7959402 10.5099715,21.525641 C10.0982906,20.7147436 9.85612536,19.7809829 9.85612536,18.7735043 C9.80769231,15.4807692 12.4230769,12.8269231 15.6680912,12.8269231 L15.6680912,12.8269231 Z M3,8.5 C3,5.46794872 5.46794872,3 8.5,3 C11.5320513,3 14,5.46794872 14,8.5 C14,11.5320513 11.5555556,14 8.5,14 C5.46794872,14 3,11.5320513 3,8.5 Z" id="Shape"></path>
                    </g>
                    <path d="M16,18 L18,18 L18,17 L19,17 L19,21 L18,21 L18,19 L16,19 L16,21 L15,21 L15,17 L16,17 L16,18 Z M12,19.0129199 C12,21.7777778 14.242268,24 17,24 C19.757732,24 22,21.751938 22,18.9870801 C22,16.2222222 19.757732,14 17,14 C14.242268,14 12,16.248062 12,19.0129199 Z" id="Combined-Shape"></path>
                </g>
            </g>
        </g>
    </g>
</svg>