<svg id="Layer_1" data-name="Layer 1" xmlns="http://www.w3.org/2000/svg" viewBox="0 0 22 24"><defs><style>.cls-1{fill:#778695;}</style></defs><title>Artboard 1</title><g id="Symbols"><g id="Иконка---Отели-на-карте-24-Gray"><g id="Иконка---Отели-на-карте"><g id="Group-10"><g id="Group"><circle id="Oval" class="cls-1" cx="8.5" cy="8.5" r="2.5"/><path id="Shape" class="cls-1" d="M15.67,12.83a1.93,1.93,0,0,1,.39,0A11.81,11.81,0,0,0,17,8.65,8.56,8.56,0,0,0,8.5,0,8.56,8.56,0,0,0,0,8.62c0,5.55,6.13,12.46,7.1,13.51A1.81,1.81,0,0,0,8.52,23c.68,0,1-.42,1.43-.86.12-.12.31-.34.56-.61a6.06,6.06,0,0,1-.65-2.75,5.82,5.82,0,0,1,5.81-5.95ZM3,8.5A5.5,5.5,0,1,1,8.5,14,5.51,5.51,0,0,1,3,8.5Z"/></g><path id="Combined-Shape" class="cls-1" d="M16,18h2V17h1v4H18V19H16v2H15V17h1Zm-4,1a5,5,0,1,0,5-5A5,5,0,0,0,12,19Z"/></g></g></g></g></svg>