<?xml version="1.0" encoding="UTF-8" standalone="no"?>
<svg width="18px" height="22px" viewBox="0 0 18 22" version="1.1" xmlns="http://www.w3.org/2000/svg" xmlns:xlink="http://www.w3.org/1999/xlink">
    <!-- Generator: Sketch 39.1 (31720) - http://www.bohemiancoding.com/sketch -->
    <title>Иконка - Отель 24 Blue</title>
    <desc>Created with Sketch.</desc>
    <defs></defs>
    <g id="Результат-поиска-и-Подробнее" stroke="none" stroke-width="1" fill="none" fill-rule="evenodd">
        <g id="DP---Результаты-поиска-Отель" transform="translate(-598.000000, -267.000000)" fill="#0054B9">
            <g id="Group-9" transform="translate(480.000000, 258.000000)">
                <g id="Иконка---Отель-24-Blue" transform="translate(115.000000, 8.000000)">
                    <g id="noun_275499_cc">
                        <g transform="translate(3.000000, 1.500000)">
                            <g id="Group">
                                <path d="M0.98505,21 L17.01495,21 C17.457975,21 17.816625,20.7027333 17.8164,20.335 C17.8164,19.9672667 17.4573,19.67 17.01495,19.67 L16.65405,19.67 L16.65405,5.7722 C16.65405,5.31323333 16.2945,4.94083333 15.852375,4.94083333 L14.8806,4.94083333 C14.306625,2.11866667 11.89215,0 8.999775,0 C6.107625,0 3.69315,2.11866667 3.11895,4.94083333 L2.14695,4.94083333 C1.70415,4.94083333 1.3455,5.313 1.3455,5.7722 L1.3455,19.6702333 L0.98505,19.6702333 C0.542475,19.6702333 0.1836,19.9679667 0.1836,20.3352333 C0.1836,20.7025 0.542475,21 0.98505,21 L0.98505,21 Z M15,19.5 L12,19.5 L12,16.5 L15,16.5 L15,19.5 L15,19.5 Z M15,14.5 L12,14.5 L12,11.5 L15,11.5 L15,14.5 L15,14.5 Z M15,6.5 L15,9.5 L12,9.5 L12,6.5 L15,6.5 L15,6.5 Z M11.400075,2.7419 L11.763225,1.93993333 L12.12615,2.7419 L12.937275,2.87116667 L12.35025,3.4951 L12.489075,4.37616667 L11.763225,3.9599 L11.037375,4.37616667 L11.17575,3.4951 L10.5885,2.87116667 L11.400075,2.7419 L11.400075,2.7419 Z M8.637075,2.7419 L9.000225,1.93993333 L9.363375,2.7419 L10.17405,2.87116667 L9.587475,3.4951 L9.7263,4.37616667 L9.000225,3.9599 L8.2746,4.37616667 L8.4132,3.4951 L7.825725,2.87116667 L8.637075,2.7419 L8.637075,2.7419 Z M8,6.5 L10,6.5 L10,9.5 L8,9.5 L8,6.5 L8,6.5 Z M8,11.5 L10,11.5 L10,14.5 L8,14.5 L8,11.5 L8,11.5 Z M8,15.5 L10,15.5 L10,20.5 L8,20.5 L8,15.5 L8,15.5 Z M5.87385,2.7419 L6.237225,1.93993333 L6.60015,2.7419 L7.41105,2.87116667 L6.82425,3.4951 L6.962625,4.37616667 L6.237,3.9599 L5.51115,4.37616667 L5.64975,3.4951 L5.0625,2.87116667 L5.87385,2.7419 L5.87385,2.7419 Z M3,6.5 L6,6.5 L6,9.5 L3,9.5 L3,6.5 L3,6.5 Z M3,11.5 L6,11.5 L6,14.5 L3,14.5 L3,11.5 L3,11.5 Z M3,16.5 L6,16.5 L6,19.5 L3,19.5 L3,16.5 L3,16.5 Z" id="Shape"></path>
                            </g>
                        </g>
                    </g>
                </g>
            </g>
        </g>
    </g>
</svg>