<?xml version="1.0" encoding="UTF-8" standalone="no"?>
<svg width="14px" height="14px" viewBox="0 0 14 14" version="1.1" xmlns="http://www.w3.org/2000/svg" xmlns:xlink="http://www.w3.org/1999/xlink">
    <!-- Generator: Sketch 39.1 (31720) - http://www.bohemiancoding.com/sketch -->
    <title>Иконка - Информация</title>
    <desc>Created with Sketch.</desc>
    <defs></defs>
    <g id="Результат-поиска-и-Подробнее" stroke="none" stroke-width="1" fill="none" fill-rule="evenodd">
        <g id="DP---Информация-о-ДП---Описание-Отеля" transform="translate(-1228.000000, -102.000000)" fill="#C9D2DB">
            <g id="Карточка-DP" transform="translate(480.000000, 97.000000)">
                <g id="Авиа" transform="translate(400.000000, 4.000000)">
                    <g id="Иконка---Информация" transform="translate(347.000000, 0.000000)">
                        <g id="noun_89849_cc-copy-3" transform="translate(1.000000, 1.000000)">
                            <g id="Group">
                                <g id="Shape">
                                    <path d="M7.04406557,0.0651803279 C3.24111475,0.0651803279 0.147114754,3.15940984 0.147114754,6.96281967 C0.147114754,10.7657705 3.24111475,13.859541 7.04406557,13.859541 C10.8467869,13.859541 13.9407869,10.7657705 13.9407869,6.96281967 C13.9407869,3.15940984 10.8467869,0.0651803279 7.04406557,0.0651803279 L7.04406557,0.0651803279 Z M7.04406557,13.3078033 C3.54521311,13.3078033 0.698852459,10.4614426 0.698852459,6.96281967 C0.698852459,3.4637377 3.54521311,0.616918033 7.04406557,0.616918033 C10.5426885,0.616918033 13.3890492,3.4635082 13.3890492,6.96281967 C13.3890492,10.4612131 10.5426885,13.3078033 7.04406557,13.3078033 L7.04406557,13.3078033 Z"></path>
                                    <path d="M6.97704918,5.26147541 C6.7032459,5.26147541 6.46983607,5.35855738 6.27727869,5.55340984 C6.08472131,5.74757377 5.98786885,5.98144262 5.98786885,6.25593443 L5.98786885,9.91222951 C5.98786885,10.1853443 6.0844918,10.4189836 6.27727869,10.611082 C6.46983607,10.8045574 6.70347541,10.9007213 6.97704918,10.9007213 C7.25085246,10.9007213 7.48495082,10.8045574 7.67980328,10.611082 C7.87419672,10.4189836 7.9715082,10.1853443 7.9715082,9.91222951 L7.9715082,6.25616393 C7.9715082,5.98167213 7.87511475,5.74780328 7.68255738,5.55363934 C7.49,5.35855738 7.25452459,5.26147541 6.97704918,5.26147541 L6.97704918,5.26147541 Z"></path>
                                    <path d="M6.97704918,2.48327869 C6.7032459,2.48327869 6.46983607,2.58036066 6.27727869,2.77521311 C6.08472131,2.96937705 5.98786885,3.2032459 5.98786885,3.4777377 C5.98786885,3.75085246 6.0844918,3.9844918 6.27727869,4.17659016 C6.46983607,4.37006557 6.70347541,4.46622951 6.97704918,4.46622951 C7.25085246,4.46622951 7.48495082,4.37006557 7.67980328,4.17659016 C7.87419672,3.9844918 7.9715082,3.75085246 7.9715082,3.4777377 C7.9715082,3.2032459 7.87511475,2.96937705 7.68255738,2.77521311 C7.49,2.58013115 7.25452459,2.48327869 6.97704918,2.48327869 L6.97704918,2.48327869 Z"></path>
                                </g>
                            </g>
                        </g>
                    </g>
                </g>
            </g>
        </g>
    </g>
</svg>