<?xml version="1.0" encoding="UTF-8"?>
<svg width="23px" height="14px" viewBox="0 0 23 14" version="1.1" xmlns="http://www.w3.org/2000/svg" xmlns:xlink="http://www.w3.org/1999/xlink">
    <!-- Generator: Sketch 40.3 (33839) - http://www.bohemiancoding.com/sketch -->
    <title>Иконка - Посадка</title>
    <desc>Created with Sketch.</desc>
    <defs></defs>
    <g id="Авиабилеты" stroke="none" stroke-width="1" fill="none" fill-rule="evenodd">
        <g id="Результаты-поиска---Авиабилеты---Подробнее" transform="translate(-512.000000, -698.000000)">
            <g id="Иконка---Посадка" transform="translate(512.000000, 693.000000)">
                <g>
                    <path d="M18.499625,14.2056242 C16.078994,13.1096533 15.6535153,14.4520082 13.7518542,12.6459404 C11.5607084,10.5649398 12.2866285,8.83998544 10.3140113,6.43148751 C9.5477745,5.49593868 8.43032631,5.26568332 8.27414629,5.95784685 C7.89669048,7.63066735 10.1165365,10.0897914 9.24673961,11.1614556 C8.55223957,12.017139 6.89042075,11.1053418 5.14555241,9.81254202 C4.10203389,9.03938309 4.58196137,8.04926923 3.66996589,7.02953809 C3.14640658,6.44412978 2.3360504,6.10023276 2.27444284,6.60226314 C2.0591817,8.35639251 2.53943187,9.06296961 3.11622849,11.5418576 C3.16939807,11.7703635 3.30823069,11.9385115 3.53437524,12.0170509 C11.750635,14.8705359 11.9472688,15.0762922 20.0010371,17.4059063 C20.9167545,17.6707845 21.233631,17.6832627 21.4733468,17.2060356 C21.6286623,16.8968329 21.3266982,16.3734521 20.7910998,15.8330467 C19.8398373,14.8732464 19.5986168,14.7032065 18.499625,14.2056242 Z" id="Path" fill="#C9D2DB" transform="translate(11.868040, 11.572382) rotate(-4.000000) translate(-11.868040, -11.572382) "></path>
                    <path d="M0.5,18.5 L22.5,18.5" id="Line" stroke="#C9D2DB" stroke-linecap="square"></path>
                </g>
            </g>
        </g>
    </g>
</svg>