<?xml version="1.0" encoding="UTF-8" standalone="no"?>
<svg width="12px" height="14px" viewBox="0 0 12 14" version="1.1" xmlns="http://www.w3.org/2000/svg" xmlns:xlink="http://www.w3.org/1999/xlink">
    <!-- Generator: Sketch 39.1 (31720) - http://www.bohemiancoding.com/sketch -->
    <title>Shape</title>
    <desc>Created with Sketch.</desc>
    <defs></defs>
    <g id="Результат-поиска-и-Подробнее" stroke="none" stroke-width="1" fill="none" fill-rule="evenodd">
        <g id="DP---Результаты-поиска-Авиа" transform="translate(-845.000000, -209.000000)" fill="#0054B9">
            <g id="Карточка-DP" transform="translate(480.000000, 97.000000)">
                <g id="Group" transform="translate(16.000000, 4.000000)">
                    <g id="Иконка---Карта-Blue" transform="translate(347.000000, 107.000000)">
                        <g id="Group-10" transform="translate(2.000000, 1.000000)">
                            <path d="M1.57299323,1.83357353 C3.80981624,-0.465080845 7.60485918,-0.624336405 10.0498001,1.47953734 C12.4950638,3.58250018 12.6634633,7.15125181 10.4269632,9.44990619 L5.99981677,14 L1.57299323,9.44990619 C-0.524331076,7.29456664 -0.524331076,3.98982399 1.57299323,1.83357353 L1.57299323,1.83357353 Z M9.35440546,5.64173986 C9.35440546,3.89994859 7.85269542,2.48744741 5.99981677,2.48744741 C4.14709957,2.48744741 2.64522808,3.90010041 2.64522808,5.64173986 C2.64522808,7.38444204 4.14726103,8.79603231 5.99981677,8.79603231 C7.85269542,8.79603231 9.35440546,7.38429022 9.35440546,5.64173986 L9.35440546,5.64173986 L9.35440546,5.64173986 Z" id="Shape"></path>
                        </g>
                    </g>
                </g>
            </g>
        </g>
    </g>
</svg>