<?xml version="1.0" encoding="UTF-8"?>
<svg width="22px" height="22px" viewBox="0 0 22 22" version="1.1" xmlns="http://www.w3.org/2000/svg" xmlns:xlink="http://www.w3.org/1999/xlink">
    <!-- Generator: Sketch 41.2 (35397) - http://www.bohemiancoding.com/sketch -->
    <title>Иконка - Логин</title>
    <desc>Created with Sketch.</desc>
    <defs></defs>
    <g id="Home-Page-(castom)" stroke="none" stroke-width="1" fill="none" fill-rule="evenodd">
        <g id="Главная-страница---SPO-витрина" transform="translate(-1337.000000, -53.000000)" fill="#FFFFFF">
            <g id="Иконка---Логин" transform="translate(1336.000000, 52.000000)">
                <g id="Иконка---Туристы">
                    <g id="Shape">
                        <path d="M11.9996503,13.6470937 C14.8246412,13.6470937 17.1148466,9.98066429 17.1148466,6.96381969 C17.1148466,3.94721234 14.8246412,1.5 11.9996503,1.5 C9.17419323,1.5 6.88492024,3.94650059 6.88492024,6.96381969 C6.88492024,9.98161329 9.17419323,13.6470937 11.9996503,13.6470937 L11.9996503,13.6470937 Z M21.5509541,15.843535 C19.9981184,14.2634638 15.9606521,12.9500593 15.9606521,12.9500593 C14.8738302,14.0926453 13.5095914,14.8468565 11.9998834,14.8468565 C10.4908749,14.8468565 9.12570353,14.0926453 8.03981417,12.9500593 C8.03981417,12.9500593 4.00188164,14.2639383 2.44881274,15.843535 C1.92987977,16.3723606 1.5,18.6736655 1.5,18.6736655 C1.5,20.786121 6.20093582,22.5 11.9998834,22.5 C17.7985979,22.5 22.5,20.786121 22.5,18.6736655 C22.4997669,18.6717675 22.0703533,16.3723606 21.5509541,15.843535 L21.5509541,15.843535 Z"></path>
                    </g>
                </g>
            </g>
        </g>
    </g>
</svg>