<?xml version="1.0" encoding="UTF-8"?>
<svg width="20px" height="20px" viewBox="0 0 20 20" version="1.1" xmlns="http://www.w3.org/2000/svg" xmlns:xlink="http://www.w3.org/1999/xlink">
    <!-- Generator: Sketch 40.3 (33839) - http://www.bohemiancoding.com/sketch -->
    <title>Иконка - Логин</title>
    <desc>Created with Sketch.</desc>
    <defs></defs>
    <g id="Symbols" stroke="none" stroke-width="1" fill="none" fill-rule="evenodd">
        <g id="Иконка---Логин" transform="translate(-2.000000, -2.000000)">
            <g id="Shape">
                <path d="M12,2 C6.5,2 2,6.5 2,12 C2,17.5 6.5,22 12,22 C17.5,22 22,17.5 22,12 C22,6.5 17.5,2 12,2 L12,2 Z M12,5 C13.7,5 15,6.3 15,8 C15,9.7 13.7,11 12,11 C10.3,11 9,9.7 9,8 C9,6.3 10.3,5 12,5 L12,5 Z M12,19.2 C9.5,19.2 7.3,17.9 6,16 C6,14 10,12.9 12,12.9 C14,12.9 18,14 18,16 C16.7,17.9 14.5,19.2 12,19.2 L12,19.2 Z" fill="#FFFFFF"></path>
                <polygon points="24 0 24 24 0 24 0 0"></polygon>
            </g>
        </g>
    </g>
</svg>