<svg id="Layer_1" data-name="Layer 1" xmlns="http://www.w3.org/2000/svg" viewBox="0 0 22 22"><defs><style>.cls-1{fill:#fff;}</style></defs><title>Artboard 1</title><g id="Home-Page-_castom_" data-name="Home-Page-(castom)"><g id="Главная-страница---SPO-витрина"><g id="Иконка---Логин"><g id="Иконка---Туристы"><g id="Shape"><path class="cls-1" d="M11,12.65c2.82,0,5.12-3.67,5.12-6.68A5.3,5.3,0,0,0,11,.5,5.3,5.3,0,0,0,5.88,6c0,3,2.29,6.68,5.11,6.68Zm9.55,2.2C19,13.26,15,12,15,12a5.52,5.52,0,0,1-4,1.9A5.52,5.52,0,0,1,7,12s-4,1.31-5.59,2.89A9,9,0,0,0,.5,17.67C.5,19.79,5.2,21.5,11,21.5s10.5-1.71,10.5-3.83a9,9,0,0,0-.95-2.83Z"/></g></g></g></g></g></svg>