<?xml version="1.0" encoding="UTF-8"?>
<svg width="16px" height="16px" viewBox="0 0 16 16" version="1.1" xmlns="http://www.w3.org/2000/svg" xmlns:xlink="http://www.w3.org/1999/xlink">
    <!-- Generator: Sketch 41.2 (35397) - http://www.bohemiancoding.com/sketch -->
    <title>Иконка - Туристы</title>
    <desc>Created with Sketch.</desc>
    <defs></defs>
    <g id="Symbols" stroke="none" stroke-width="1" fill="none" fill-rule="evenodd">
        <g id="Фон---Иконки" transform="translate(-490.000000, -70.000000)" fill="#FFFFFF">
            <rect id="Rectangle-3" x="0" y="0" width="1000" height="468"></rect>
        </g>
        <g id="Иконка---Туристы" fill="#9CA6B0">
            <g id="Shape">
                <path d="M7.99976688,9.09806248 C9.8830941,9.09806248 11.4098978,6.6537762 11.4098978,4.64254646 C11.4098978,2.63147489 9.8830941,1 7.99976688,1 C6.11612882,1 4.58994683,2.6310004 4.58994683,4.64254646 C4.58994683,6.65440886 6.11612882,9.09806248 7.99976688,9.09806248 L7.99976688,9.09806248 Z M14.3673028,10.5623567 C13.3320789,9.50897588 10.6404347,8.63337287 10.6404347,8.63337287 C9.91588681,9.39509688 9.00639425,9.89790431 7.99992229,9.89790431 C6.99391659,9.89790431 6.08380236,9.39509688 5.35987611,8.63337287 C5.35987611,8.63337287 2.66792109,9.50929221 1.63254182,10.5623567 C1.28658652,10.9149071 1,12.4491103 1,12.4491103 C1,13.857414 4.13395722,15 7.99992229,15 C11.865732,15 15,13.857414 15,12.4491103 C14.9998446,12.447845 14.7135689,10.9149071 14.3673028,10.5623567 L14.3673028,10.5623567 Z"></path>
            </g>
        </g>
    </g>
</svg>