<svg id="Layer_1" data-name="Layer 1" xmlns="http://www.w3.org/2000/svg" viewBox="0 0 16 16"><defs><style>.cls-1{fill:#303c47;}</style></defs><title>Artboard 1</title><g id="Symbols"><g id="Иконка---Туристы"><g id="Shape"><path class="cls-1" d="M8,9.1c1.88,0,3.41-2.44,3.41-4.46A3.53,3.53,0,0,0,8,1,3.53,3.53,0,0,0,4.59,4.64c0,2,1.53,4.46,3.41,4.46Zm6.37,1.46a12.07,12.07,0,0,0-3.73-1.93A3.68,3.68,0,0,1,8,9.9,3.68,3.68,0,0,1,5.36,8.63a12.08,12.08,0,0,0-3.73,1.93A6,6,0,0,0,1,12.45C1,13.86,4.13,15,8,15s7-1.14,7-2.55a6,6,0,0,0-.63-1.89Z"/></g></g></g></svg>