<?xml version="1.0" encoding="UTF-8" standalone="no"?>
<svg width="101px" height="40px" viewBox="0 0 101 40" version="1.1" xmlns="http://www.w3.org/2000/svg" xmlns:xlink="http://www.w3.org/1999/xlink">
    <!-- Generator: Sketch 39.1 (31720) - http://www.bohemiancoding.com/sketch -->
    <title>logo_INNA TOUR</title>
    <desc>Created with Sketch.</desc>
    <defs></defs>
    <g id="Результат-поиска-и-Подробнее" stroke="none" stroke-width="1" fill="none" fill-rule="evenodd">
        <g id="DP---Результаты-поиска-Отель" transform="translate(-363.000000, -16.000000)">
            <g id="logo_INNA-TOUR" transform="translate(363.000000, 16.000000)">
                <g>
                    <path d="M50.7792969,36 C23.8810427,36 2.07543945,28.2734272 2.07543945,18.7426711 C2.07543945,9.21191494 23.8810427,1.48534211 50.7792969,1.48534211 C77.6775511,1.48534211 99.4831543,9.21191494 99.4831543,18.7426711 C99.4831543,28.2734272 77.6775511,36 50.7792969,36 Z" id="Fill-1" fill="#FFFFFF"></path>
                    <path d="M82.7773437,29.9173961 C81.1572266,29.9173961 80.6474609,28.8091272 80.6474609,28.8091272 L78.4326172,23.6968216 L73.7773438,23.6968216 C73.7773438,23.6968216 73.5800781,29.9173961 69.1796875,29.9173961 C65.2617188,29.9173961 63.7871094,27.1613835 63.7871094,27.1613835 L56.9169922,17.6189343 C56.9169922,17.6189343 56.6914062,17.276876 56.4072266,17.276876 C56.1220703,17.276876 56.0654297,17.7323022 56.0654297,17.7323022 L56.0654297,27.5601258 C56.0654297,27.5601258 56.1796875,29.9476927 53.9648437,29.9476927 C51.8652344,29.9476927 51.6953125,27.6168097 51.6953125,27.6168097 L51.6953125,14.4954534 C51.6953125,14.4954534 51.8085938,11.2840146 54.7041016,11.2840146 C57.5429687,11.2840146 58.6767578,13.1878134 58.6767578,13.1878134 L67.4199219,25.1158749 C67.4199219,25.1158749 67.7617188,25.627985 68.6123047,25.627985 C69.6347656,25.627985 69.6347656,24.2656157 69.6347656,24.2656157 L69.6347656,14.4954534 C69.6347656,14.4954534 69.9169922,11.2840146 73.3251953,11.2840146 C78.09375,11.2840146 79.0585937,14.6088213 79.0585937,14.6088213 L84.1953125,27.4467579 C84.1953125,27.4467579 84.7910156,29.9173961 82.7773437,29.9173961 L82.7773437,29.9173961 Z M49.9541016,26.0267273 C49.9541016,26.0267273 49.8212891,29.9173961 45.9326172,29.9173961 C41.5429688,29.9173961 39.6416016,26.7245262 39.6416016,26.7245262 L33.2832031,17.8652163 C33.2832031,17.8652163 32.9609375,17.33356 32.6005859,17.33356 C32.1376953,17.33356 32.2236328,17.8652163 32.2236328,17.8652163 L32.2236328,24.8041132 C32.2236328,24.8041132 31.7675781,29.9858078 26.0341797,29.9858078 C20.1884766,29.9858078 19.8085938,24.6829268 19.8085938,24.6829268 L19.8085938,12.9425087 C19.8085938,12.9425087 20.1503906,11.2752188 21.8916016,11.2752188 C23.6318359,11.2752188 23.9726563,12.9620549 23.9726563,12.9620549 L23.9726563,24.0760177 C23.9726563,24.0760177 24.1611328,25.9700433 26.0908203,25.9700433 C28.0214844,25.9700433 28.0595703,24.0760177 28.0595703,24.0760177 L28.0595703,14.4954534 C28.0595703,14.4954534 27.8339844,11.2752188 30.859375,11.2752188 C33.6416016,11.2752188 34.6064453,13.1878134 34.6064453,13.1878134 L43.2744141,24.6829268 C43.2744141,24.6829268 43.7275391,25.5146171 44.7871094,25.5146171 C45.8466797,25.5146171 45.7714844,24.3037308 45.7714844,24.3037308 L45.7714844,13.5464859 C45.7714844,13.5464859 45.7900391,11.2752188 47.9101563,11.2752188 C50.0302734,11.2752188 49.9541016,13.3969576 49.9541016,13.3969576 L49.9541016,26.0267273 L49.9541016,26.0267273 Z M22.0048828,5.68794085 C23.3525391,5.68794085 24.4453125,6.78252741 24.4453125,8.13121441 C24.4453125,9.48087873 23.3525391,10.574488 22.0048828,10.574488 C20.65625,10.574488 19.5625,9.48087873 19.5625,8.13121441 C19.5625,6.78252741 20.65625,5.68794085 22.0048828,5.68794085 L22.0048828,5.68794085 Z M50.5625,0.789666015 C22.9755859,0.789666015 0.815429688,9.67047676 0.815429688,20.372015 C0.815429688,31.0735532 23.1806641,39.7491289 50.7675781,39.7491289 C78.3554688,39.7491289 100.720703,31.0735532 100.720703,20.372015 C100.720703,9.67047676 78.1503906,0.789666015 50.5625,0.789666015 L50.5625,0.789666015 Z" id="Fill-2" fill="#7CB621"></path>
                    <path d="M74.3466797,15.4023965 C73.8632812,15.4023965 73.7773438,16.0855358 73.7773438,16.0855358 L73.7773438,20.4609501 L77.0146484,20.4609501 L75.3974609,16.0571938 C75.3974609,16.0571938 75.3115234,15.4023965 74.3466797,15.4023965" id="Fill-3" fill="#7CB621"></path>
                </g>
            </g>
        </g>
    </g>
</svg>