<?xml version="1.0" encoding="UTF-8"?>
<svg width="140px" height="41px" viewBox="0 0 140 41" version="1.1" xmlns="http://www.w3.org/2000/svg" xmlns:xlink="http://www.w3.org/1999/xlink">
    <!-- Generator: Sketch 41.2 (35397) - http://www.bohemiancoding.com/sketch -->
    <title>Group 2</title>
    <desc>Created with Sketch.</desc>
    <defs></defs>
    <g id="touron" stroke="none" stroke-width="1" fill="none" fill-rule="evenodd">
        <g transform="translate(-480.000000, -34.000000)" id="Group-2">
            <g transform="translate(480.000000, 34.000000)">
                <rect id="Rectangle-Copy-4" fill="#FFFFFF" x="0" y="0" width="140" height="41" rx="2.8"></rect>
                <rect id="Rectangle-Copy-6" fill="#49B42F" x="83.2758621" y="0" width="56.7241379" height="41"></rect>
                <path d="M110.32,20.5 C110.32,23.5091116 109.278451,26.0250492 107.24,28.170068 C105.112195,30.1954985 102.607112,31.2380952 99.68,31.2380952 C96.7528877,31.2380952 94.247805,30.1954985 92.12,28.170068 C90.0815485,26.0250492 89.04,23.5091116 89.04,20.5 C89.04,17.6254494 90.0815485,15.1144066 92.12,12.9693878 C94.247805,10.9439573 96.7528877,9.90136054 99.68,9.90136054 C102.607112,9.90136054 105.112195,10.9439573 107.24,12.9693878 C109.278451,15.1144066 110.32,17.6254494 110.32,20.5 Z M108.22,20.5 C108.22,18.152023 107.384627,16.1502989 105.7,14.5034014 C104.043084,12.8246076 102.031819,11.9931973 99.68,11.9931973 C97.328181,11.9931973 95.316916,12.8246076 93.66,14.5034014 C91.9753732,16.1502989 91.14,18.152023 91.14,20.5 C91.14,22.8431007 91.9753732,24.8497011 93.66,26.4965986 C95.316916,28.1753924 97.328181,29.0068027 99.68,29.0068027 C102.031819,29.0068027 104.043084,28.1753924 105.7,26.4965986 C107.384627,24.8497011 108.22,22.8431007 108.22,20.5 Z M130.2,30.122449 C130.2,30.8763764 129.837745,31.2380952 129.08,31.2380952 C128.780337,31.2380952 128.467035,31.0474597 128.24,30.6802721 L115.22,14.085034 L115.22,30.122449 C115.264179,30.8666001 114.906819,31.2234308 114.24,31.2380952 C113.47736,31.2234308 113.12,30.8666001 113.12,30.122449 L113.12,11.0170068 C113.12,10.2630793 113.482255,9.90136054 114.24,9.90136054 C114.539663,9.90136054 114.852965,10.0919961 115.08,10.4591837 L128.1,27.0544218 L128.1,11.0170068 C128.070507,10.2728557 128.422972,9.91602497 129.08,9.90136054 C129.84264,9.91602497 130.2,10.2728557 130.2,11.0170068 L130.2,30.122449 Z" id="ON-Copy-3" fill="#FFFFFF"></path>
                <path d="M21.98,11.0170068 C21.98,11.6782016 21.6219355,12.0306286 20.86,11.9931973 L15.54,11.9931973 L15.54,30.122449 C15.5642043,30.8807734 15.2061398,31.2380952 14.56,31.2380952 C13.7738602,31.2380952 13.4157957,30.8807734 13.44,30.122449 L13.44,11.9931973 L8.12,11.9931973 C7.35806453,12.0306286 7,11.6782016 7,11.0170068 C7,10.2586824 7.35806453,9.90136054 8.12,9.90136054 L20.86,9.90136054 C21.6219355,9.90136054 21.98,10.2586824 21.98,11.0170068 Z M43.96,20.5 C43.96,23.5091116 42.9184515,26.0250492 40.88,28.170068 C38.752195,30.1954985 36.2471123,31.2380952 33.32,31.2380952 C30.3928877,31.2380952 27.887805,30.1954985 25.76,28.170068 C23.7215485,26.0250492 22.68,23.5091116 22.68,20.5 C22.68,17.6254494 23.7215485,15.1144066 25.76,12.9693878 C27.887805,10.9439573 30.3928877,9.90136054 33.32,9.90136054 C36.2471123,9.90136054 38.752195,10.9439573 40.88,12.9693878 C42.9184515,15.1144066 43.96,17.6254494 43.96,20.5 Z M41.86,20.5 C41.86,18.152023 41.0246268,16.1502989 39.34,14.5034014 C37.683084,12.8246076 35.671819,11.9931973 33.32,11.9931973 C30.968181,11.9931973 28.956916,12.8246076 27.3,14.5034014 C25.6153732,16.1502989 24.78,18.152023 24.78,20.5 C24.78,22.8431007 25.6153732,24.8497011 27.3,26.4965986 C28.956916,28.1753924 30.968181,29.0068027 33.32,29.0068027 C35.671819,29.0068027 37.683084,28.1753924 39.34,26.4965986 C41.0246268,24.8497011 41.86,22.8431007 41.86,20.5 Z M61.04,23.707483 C61.04,25.8292751 60.3084373,27.5914104 58.8,29.0068027 C57.3821428,30.508767 55.6146089,31.2380952 53.48,31.2380952 C51.4804813,31.2380952 49.7178572,30.508767 48.3,29.0068027 C46.7915627,27.5914104 46.06,25.8292751 46.06,23.707483 L46.06,11.0170068 C46.06,10.2586824 46.4184166,9.90136054 47.18,9.90136054 C47.8422848,9.90136054 48.1957915,10.2586824 48.16,11.0170068 L48.16,23.707483 C48.1957915,25.2320981 48.7211419,26.4900669 49.84,27.4727891 C50.8225749,28.5850814 52.0794879,29.1088272 53.48,29.1462585 C55.0156023,29.1088272 56.2774251,28.5850814 57.26,27.4727891 C58.3788581,26.4900669 58.9042085,25.2320981 58.94,23.707483 L58.94,11.0170068 C58.9042085,10.2586824 59.2577152,9.90136054 59.92,9.90136054 C60.6815834,9.90136054 61.04,10.2586824 61.04,11.0170068 L61.04,23.707483 Z M77.42,30.122449 C77.42,30.4358902 77.3093482,30.6878001 77.14,30.9591837 C76.8667343,31.1280375 76.6134646,31.2380952 76.3,31.2380952 C76.0528203,31.2380952 75.8020095,31.1304833 75.6,30.9591837 L67.2,22.452381 C66.8858406,22.267078 66.733387,22.0371797 66.64,21.8945578 L66.64,30.122449 C66.6940435,30.8663446 66.3350399,31.2234207 65.66,31.2380952 C64.8990037,31.2234207 64.54,30.8663446 64.54,30.122449 L64.54,11.0170068 C64.54,10.2535452 64.8940858,9.90136054 65.66,9.90136054 L70.98,9.90136054 C72.7529146,9.90136054 74.2700739,10.5274666 75.46,11.7142857 C76.7782193,13.0319285 77.4052463,14.5384963 77.42,16.3163265 C77.4052463,18.0603958 76.7782193,19.5669636 75.46,20.7789116 C74.2700739,22.0714255 72.7529146,22.6975316 70.98,22.7312925 L70.42,22.7312925 L77.14,29.4251701 C77.3118071,29.628792 77.42,29.8782561 77.42,30.122449 Z M75.32,16.3163265 C75.32,15.1098761 74.9010885,14.0980715 74.06,13.2482993 C73.2254175,12.4141671 72.2185601,11.9931973 70.98,11.9931973 L66.78,11.9931973 L66.78,21.4761905 C66.8779925,20.8754994 67.2993537,20.5751584 68.04,20.6394558 L70.98,20.6394558 C72.2185601,20.5751584 73.2254175,20.1566504 74.06,19.3843537 C74.9010885,18.4825934 75.32,17.4732507 75.32,16.3163265 Z" id="tour-copy-3" fill="#778695"></path>
            </g>
        </g>
    </g>
</svg>