<?xml version="1.0" encoding="UTF-8"?>
<svg width="22px" height="22px" viewBox="0 0 22 22" version="1.1" xmlns="http://www.w3.org/2000/svg" xmlns:xlink="http://www.w3.org/1999/xlink">
    <!-- Generator: Sketch 41 (35326) - http://www.bohemiancoding.com/sketch -->
    <title>Иконка - mail (black)</title>
    <desc>Created with Sketch.</desc>
    <defs></defs>
    <g id="Личный-кабинет" stroke="none" stroke-width="1" fill="none" fill-rule="evenodd">
        <g id="Заявка-с-трансфером" transform="translate(-1357.000000, -13.000000)" fill="#303C47">
            <g id="Иконка---mail-(black)" transform="translate(1356.000000, 12.000000)">
                <g id="noun_17648_cc">
                    <g transform="translate(1.000000, 1.000000)">
                        <g id="Group">
                            <path d="M10.99824,0 C4.92492,0 0,4.92338 0,10.99824 C0,17.07156 4.92492,21.99648 10.99824,21.99648 C17.07266,21.99648 21.99626,17.07156 21.99626,10.99824 C21.99626,4.92338 17.07288,0 10.99824,0 Z M17.41366,15.58238 L4.58326,15.58238 L4.58326,9.46726 L9.07016,12.57784 C9.64238,12.96856 10.3224,13.13796 10.99846,13.1406 C11.67122,13.13928 12.35146,12.96878 12.92434,12.57784 L17.41388,9.46726 L17.41388,15.58238 L17.41366,15.58238 Z M17.41366,7.68284 L12.08922,11.37224 C11.82852,11.55528 11.41514,11.67584 10.99824,11.6743 C10.57804,11.67584 10.16488,11.55528 9.9055,11.37224 L4.58326,7.68438 L4.58326,6.41432 L17.41366,6.41432 L17.41366,7.68284 L17.41366,7.68284 Z" id="Shape"></path>
                        </g>
                    </g>
                </g>
            </g>
        </g>
    </g>
</svg>