<svg id="Layer_1" data-name="Layer 1" xmlns="http://www.w3.org/2000/svg" viewBox="0 0 13.97 9.78"><defs><style>.cls-1{fill:#303c47;}</style></defs><title>Иконка - mail</title><g id="Перелет-_-Отель" data-name="Перелет-+-Отель"><g id="DP---Результаты-поиска-Авиа"><g id="Иконка---mail"><g id="noun_573497_cc" data-name="noun 573497 cc"><g id="_4" data-name="4"><path id="Shape" class="cls-1" d="M7,9.79H1.23A1.14,1.14,0,0,1,.05,8.91a1.27,1.27,0,0,1,0-.28V1.19A1.13,1.13,0,0,1,1.25,0H12.79A1.13,1.13,0,0,1,14,1.18q0,3.72,0,7.45a1.13,1.13,0,0,1-1.22,1.16ZM9,5.68A.51.51,0,0,0,9,5.8l2,1.93.53.51a.55.55,0,0,0,.58.12.53.53,0,0,0,.37-.43.55.55,0,0,0-.2-.51L9.84,5,9.7,4.89l.15-.12L12.3,2.41l.1-.1a.53.53,0,0,0-.3-.89.59.59,0,0,0-.56.19l-4.13,4a.48.48,0,0,1-.79,0L2.54,1.65,2.4,1.53a.57.57,0,0,0-.9.3.55.55,0,0,0,.19.55L4.18,4.79l.12.12L4.18,5,1.69,7.43a.55.55,0,0,0-.2.5.52.52,0,0,0,.37.44.57.57,0,0,0,.61-.15L5,5.8l.11-.1L6,6.57a1.35,1.35,0,0,0,2,0c.3-.29.62-.57,1-.89Z" transform="translate(-0.03 -0.01)"/></g></g></g></g></g></svg>