<?xml version="1.0" encoding="UTF-8" standalone="no"?>
<svg width="14px" height="13px" viewBox="0 0 14 13" version="1.1" xmlns="http://www.w3.org/2000/svg" xmlns:xlink="http://www.w3.org/1999/xlink">
    <!-- Generator: Sketch 39.1 (31720) - http://www.bohemiancoding.com/sketch -->
    <title>Иконка - Мед. Страховка</title>
    <desc>Created with Sketch.</desc>
    <defs></defs>
    <g id="Результат-поиска-и-Подробнее" stroke="none" stroke-width="1" fill="none" fill-rule="evenodd">
        <g id="DP---Результаты-поиска-Авиа" transform="translate(-1267.000000, -498.000000)" fill="#9CA6B0">
            <g id="Group-4" transform="translate(1266.000000, 424.000000)">
                <g id="Иконка---Мед.-Страховка" transform="translate(0.000000, 72.000000)">
                    <g id="noun_538392_cc" transform="translate(1.000000, 2.000000)">
                        <g id="Group">
                            <path d="M10,2.59108889 L9.05271838,2.59108889 L9.05271838,1.39953333 C9.05271838,1.15313333 8.84014073,0.952622222 8.57891265,0.952622222 L5.42108735,0.952622222 C5.15985927,0.952622222 4.94728162,1.15313333 4.94728162,1.39953333 L4.94728162,2.59108889 L4,2.59108889 L4,1.39953333 C4,0.660488889 4.63740311,0.0591111111 5.42108735,0.0591111111 L8.57891265,0.0591111111 C9.36259689,0.0591111111 10,0.660488889 10,1.39953333 L10,2.59108889 L10,2.59108889 L10,2.59108889 Z" id="Shape"></path>
                            <path d="M0,3.57138196 L0,11.4286184 C0,12.2950612 0.663246975,13 1.47810208,13 L2,12.9999997 L2,2 L1.47810208,2.00000033 C0.663246975,2.00000033 0,2.70493913 0,3.57138196 Z" id="Shape"></path>
                            <path d="M3,2 L3,13 L11,13 L11,2 L3,2 L3,2 Z M8.76279448,8.89001509 L8.40737302,8.89001509 L8.16985803,8.89001509 L7.88994623,8.89001509 L7.88994623,9.16994855 L7.88994623,9.40717242 L7.88994623,9.76293087 C7.88994623,9.89415451 7.78349,10 7.65274071,10 L6.34710456,10 C6.2160458,10 6.10989904,9.89369028 6.10989904,9.76293087 L6.10989904,9.40717242 L6.10989904,9.16994855 L6.10989904,8.89001509 L5.62837028,8.89001509 L5.39116475,8.89001509 L5.23720552,8.89001509 C5.10614676,8.89001509 5,8.78355062 5,8.65279121 L5,7.34705404 C5,7.21598514 5.1063015,7.10983017 5.23720552,7.10983017 L5.59278171,7.10983017 L5.83014197,7.10983017 L6.11005377,7.10983017 L6.11005377,6.82958722 L6.11005377,6.59236334 L6.11005377,6.23722388 C6.11005377,6.10630972 6.21635527,6 6.34725929,6 L7.65289544,6 C7.78379947,6 7.88994623,6.10630972 7.88994623,6.23722388 L7.88994623,6.59236334 L7.88994623,6.82958722 L7.88994623,7.10983017 L8.17001277,7.10983017 L8.40721829,7.10983017 L8.76294921,7.10983017 C8.89400797,7.10983017 9,7.21598514 9,7.34705404 L9,8.65279121 C9,8.78355062 8.89354377,8.89001509 8.76279448,8.89001509 L8.76279448,8.89001509 Z" id="Shape"></path>
                            <path d="M12,2 L12,12.9999997 L12.5049624,13 C13.3291538,13 14,12.2950612 14,11.4286184 L14,3.57138196 C14,2.70493913 13.3291538,2.00000033 12.5049624,2.00000033 L12,2 Z" id="Shape"></path>
                        </g>
                    </g>
                </g>
            </g>
        </g>
    </g>
</svg>