<?xml version="1.0" encoding="UTF-8"?>
<svg width="20px" height="20px" viewBox="0 0 20 20" version="1.1" xmlns="http://www.w3.org/2000/svg" xmlns:xlink="http://www.w3.org/1999/xlink">
    <!-- Generator: Sketch 40.3 (33839) - http://www.bohemiancoding.com/sketch -->
    <title>Иконка - Ok</title>
    <desc>Created with Sketch.</desc>
    <defs></defs>
    <g id="Symbols" stroke="none" stroke-width="1" fill="none" fill-rule="evenodd">
        <g id="Подвал" transform="translate(-1340.000000, -33.000000)" fill="#778695">
            <g id="Соц-сети">
                <g transform="translate(1286.000000, 31.000000)">
                    <g id="Иконка---Ok" transform="translate(52.000000, 0.000000)">
                        <g id="icon" transform="translate(2.000000, 2.000000)">
                            <path d="M0,2.99420208 C0,1.34054993 1.34331197,0 2.99420208,0 L17.0057979,0 C18.6594501,0 20,1.34331197 20,2.99420208 L20,17.0057979 C20,18.6594501 18.656688,20 17.0057979,20 L2.99420208,20 C1.34054993,20 0,18.656688 0,17.0057979 L0,2.99420208 Z M9.6875,1.875 C11.9375,1.875 13.75,3.6875 13.75,5.9375 C13.75,8.1875 11.9375,10 9.6875,10 C7.4375,10 5.625,8.1875 5.625,5.9375 C5.625,3.6875 7.4375,1.875 9.6875,1.875 L9.6875,1.875 Z M14.1875,11.3125 C14,11.625 13.5625,11.9375 13.125,12.1875 C12.625,12.5625 11.9375,12.75 11.375,12.875 L11.0625,12.9375 L11.25,13.125 L13.4375,15.375 C13.875,15.8125 13.875,16.5625 13.4375,17.0625 L13.3125,17.1875 C12.875,17.625 12.125,17.625 11.6875,17.1875 C11.25,16.75 10.75,16.1875 10.125,15.5625 L9.75,15.1875 L7.8125,17.1875 C7.5,17.375 7.25,17.5 6.9375,17.5 C6.625,17.5 6.3125,17.375 6.125,17.125 L6,17 C5.5625,16.5625 5.5625,15.8125 6,15.3125 C6.5625,14.75 7.375,13.9375 8.1875,13.0625 L8.375,12.875 L8.0625,12.8125 C7.5,12.6875 6.8125,12.5 6.3125,12.125 C5.875,11.8125 5.5,11.5625 5.25,11.25 C5,10.875 5,10.5 5.25,10 C5.5625,9.375 6.375,8.9375 7.25,9.75 C8.1875,10.5 9.75,10.5 9.75,10.5 C9.75,10.5 11.3125,10.5 12.25,9.75 C13.1875,9 14,9.4375 14.25,10 C14.4375,10.5 14.4375,10.9375 14.1875,11.3125 L14.1875,11.3125 Z" id="Shape"></path>
                            <circle id="Oval" cx="9.6875" cy="5.9375" r="1.5625"></circle>
                        </g>
                    </g>
                </g>
            </g>
        </g>
    </g>
</svg>