<?xml version="1.0" encoding="UTF-8"?>
<svg width="20px" height="20px" viewBox="0 0 20 20" version="1.1" xmlns="http://www.w3.org/2000/svg" xmlns:xlink="http://www.w3.org/1999/xlink">
    <!-- Generator: Sketch 41 (35326) - http://www.bohemiancoding.com/sketch -->
    <title>Иконка - Телефон</title>
    <desc>Created with Sketch.</desc>
    <defs></defs>
    <g id="Личный-кабинет" stroke="none" stroke-width="1" fill="none" fill-rule="evenodd">
        <g id="О-компании" transform="translate(-1126.000000, -14.000000)" fill="#303C47">
            <g id="Иконка---Телефон-(black)" transform="translate(1124.000000, 12.000000)">
                <g id="Иконка---Телефон">
                    <path d="M6,10.6666667 C7.55555556,13.7777778 10.2222222,16.3333333 13.3333333,18 L15.7777778,15.5555556 C16.1111111,15.2222222 16.5555556,15.1111111 16.8888889,15.3333333 C18.1111111,15.7777778 19.4444444,16 20.8888889,16 C21.4444444,16 22,16.4444444 22,17.1111111 L22,20.8888889 C22,21.4444444 21.4444444,22 20.8888889,22 C10.4444444,22 2,13.5555556 2,3.11111111 C2,2.55555556 2.55555556,2 3.11111111,2 L7,2 C7.66666667,2 8.11111111,2.55555556 8.11111111,3.11111111 C8.11111111,4.44444444 8.33333333,5.77777778 8.77777778,7.11111111 C8.88888889,7.44444444 8.77777778,7.88888889 8.55555556,8.22222222 L6,10.6666667 L6,10.6666667 Z" id="Shape"></path>
                </g>
            </g>
        </g>
    </g>
</svg>