<svg id="Layer_1" data-name="Layer 1" xmlns="http://www.w3.org/2000/svg" viewBox="0 0 14 14"><defs><style>.cls-1{fill:#303c47;}</style></defs><title>Artboard 1</title><g id="Home-Page-_castom_" data-name="Home-Page-(castom)"><g id="Главная-страница---SPO-витрина"><g id="tel"><g id="Иконка---Телефон"><g id="Shape"><path class="cls-1" d="M3,6.11A11.53,11.53,0,0,0,7.89,11L9.52,9.37a.59.59,0,0,1,.74-.15,7.75,7.75,0,0,0,2.67.44.74.74,0,0,1,.74.74v2.52a.8.8,0,0,1-.74.74A12.58,12.58,0,0,1,.33,1.07.8.8,0,0,1,1.07.33H3.67a.74.74,0,0,1,.74.74,8.39,8.39,0,0,0,.44,2.67.91.91,0,0,1-.15.74L3,6.11Z"/></g></g></g></g></g></svg>