<?xml version="1.0" encoding="UTF-8"?>
<svg width="20px" height="20px" viewBox="0 0 20 20" version="1.1" xmlns="http://www.w3.org/2000/svg" xmlns:xlink="http://www.w3.org/1999/xlink">
    <!-- Generator: Sketch 40.3 (33839) - http://www.bohemiancoding.com/sketch -->
    <title>Иконка - Pinterest</title>
    <desc>Created with Sketch.</desc>
    <defs></defs>
    <g id="Symbols" stroke="none" stroke-width="1" fill="none" fill-rule="evenodd">
        <g id="Подвал" transform="translate(-1392.000000, -33.000000)" fill="#778695">
            <g id="Соц-сети">
                <g transform="translate(1286.000000, 31.000000)">
                    <g id="Иконка---Pinterest" transform="translate(104.000000, 0.000000)">
                        <g id="icon" transform="translate(2.000000, 2.000000)">
                            <path d="M0,2.99420208 C0,1.34054993 1.34331197,0 2.99420208,0 L17.0057979,0 C18.6594501,0 20,1.34331197 20,2.99420208 L20,17.0057979 C20,18.6594501 18.656688,20 17.0057979,20 L2.99420208,20 C1.34054993,20 0,18.656688 0,17.0057979 L0,2.99420208 Z M11.00125,14.19875 C10.2,14.19875 9.4,13.90125 8.90125,13.30125 L7.9,16.49875 L7.7975,16.69875 C7.5975,17.0025 7.3,17.2025 6.9,17.2025 C6.29875,17.2025 5.80125,16.69875 5.80125,16.09875 L5.80125,16.00125 L5.89875,15.80125 L7.7,10.2 C7.7,10.2 7.5,9.6 7.5,8.70125 C7.5,7.0025 8.39875,6.49875 9.19875,6.49875 C9.9025,6.49875 10.6,6.80125 10.6,7.7975 C10.6,9.10125 9.7025,9.8 9.7025,10.80125 C9.7025,11.49875 10.2975,12.1 11.00125,12.1 C13.30125,12.1 14.19875,10.2975 14.19875,8.70125 C14.19875,6.49875 12.3,4.7025 10,4.7025 C7.7,4.7025 5.80125,6.49875 5.80125,8.70125 C5.80125,9.4 6.00125,10 6.29875,10.6 C6.40125,10.80125 6.40125,10.89875 6.40125,11.09875 C6.40125,11.69875 6.00125,12.1 5.4,12.1 C5,12.1 4.7025,11.9 4.5025,11.60125 C3.99875,10.69875 3.70125,9.7025 3.70125,8.59875 C3.70125,5.2975 6.49875,2.5975 9.9025,2.5975 C13.30125,2.5975 16.09875,5.2975 16.09875,8.59875 C16.20125,11.40125 14.6,14.19875 11.00125,14.19875 L11.00125,14.19875 Z" id="Fill-1"></path>
                        </g>
                    </g>
                </g>
            </g>
        </g>
    </g>
</svg>