<?xml version="1.0" encoding="UTF-8"?>
<svg width="24px" height="22px" viewBox="0 0 24 22" version="1.1" xmlns="http://www.w3.org/2000/svg" xmlns:xlink="http://www.w3.org/1999/xlink">
    <!-- Generator: Sketch 41.2 (35397) - http://www.bohemiancoding.com/sketch -->
    <title>noun_597325_cc</title>
    <desc>Created with Sketch.</desc>
    <defs></defs>
    <g id="Home-Page-(castom)" stroke="none" stroke-width="1" fill="none" fill-rule="evenodd">
        <g id="Главная-страница---SPO-витрина" transform="translate(-480.000000, -7.000000)" fill="#FF1723">
            <g id="noun_597325_cc" transform="translate(480.000000, 7.000000)">
                <g id="Group">
                    <g id="Shape">
                        <path d="M5.687,7.91658621 C6.76234483,8.12672414 7.92493103,8.11382759 9.00862069,8.00648276 C9.01317241,9.43155172 9.01089655,10.8566207 9.01089655,12.2816897 L1.67465517,12.2816897 C0.941068966,12.2816897 0.341,11.6816207 0.341,10.9480345 L0.341,7.942 C0.341,7.20841379 0.941068966,6.60834483 1.67465517,6.60834483 L3.67096552,6.60834483 C3.82837931,6.60834483 4.51948276,7.36696552 4.70268966,7.48986207 C5.049,7.72162069 5.20186207,7.81834483 5.63465517,7.90596552 C5.65210345,7.90975862 5.66955172,7.91317241 5.687,7.91658621 Z"></path>
                        <path d="M23.9348621,7.94237931 L23.9348621,10.9484138 C23.9348621,11.682 23.3347931,12.282069 22.6012069,12.282069 L15.2649655,12.282069 L15.2649655,8.02848276 C15.2846897,8.31562069 17.4232414,7.997 17.6238966,7.9712069 C18.051,7.9162069 18.5228621,7.88965517 18.9366897,7.76334483 C19.234069,7.67231034 19.5052759,7.5277931 19.7647241,7.35444828 C19.9191034,7.25127586 20.4846552,6.60872414 20.6143793,6.60872414 L22.6012069,6.60872414 C23.3347931,6.60872414 23.9348621,7.2087931 23.9348621,7.94237931 Z"></path>
                        <path d="M2.19848276,13.0441034 L9.01089655,13.0441034 L9.01089655,21.9522069 L3.53175862,21.9522069 C2.79817241,21.9522069 2.19810345,21.3521379 2.19810345,20.6185517 L2.19810345,13.0441034 L2.19848276,13.0441034 Z"></path>
                        <path d="M22.0754828,13.0441034 L22.0754828,20.6185517 C22.0754828,21.3521379 21.4754138,21.9522069 20.7418276,21.9522069 L15.2649655,21.9522069 L15.2649655,13.0441034 L22.0754828,13.0441034 Z"></path>
                        <path d="M18.4325862,0.331896552 C16.9126897,-0.276137931 15.5991379,0.147172414 14.4778966,1.27903448 C13.728,2.03803448 12.9856897,2.80651724 12.1333793,3.68006897 C11.2336552,2.75455172 10.4484828,1.8882069 9.60072414,1.08786207 C8.50565517,0.0553793103 7.21031034,-0.242758621 5.80193103,0.348586207 C4.43337931,0.922862069 3.68006897,2.01793103 3.619,3.48282759 C3.55641379,4.95531034 4.26496552,6.05796552 5.55727586,6.776 C5.6687931,6.83858621 5.78031034,6.89813793 5.93165517,6.98082759 L10.0577931,6.98082759 L10.0577931,21.9514483 L14.216931,21.9514483 L14.216931,6.9812069 L18.2967931,6.9812069 C18.3472414,6.95086207 18.3806207,6.93075862 18.4174138,6.91558621 C19.8883793,6.25558621 20.6963103,5.104 20.6583793,3.50786207 C20.6215862,2.01224138 19.844,0.895551724 18.4325862,0.331896552 Z M8.3527931,5.38355172 C7.94806897,5.38355172 7.54182759,5.39568966 7.13710345,5.38051724 C6.33372414,5.34827586 5.64944828,4.81382759 5.45068966,4.08213793 C5.25686207,3.36410345 5.55917241,2.55768966 6.17782759,2.14537931 C6.81772414,1.71751724 7.69468966,1.73003448 8.29324138,2.26448276 C8.97296552,2.871 9.61741379,3.52151724 10.2284828,4.19668966 C10.3767931,4.36168966 10.4424138,4.74213793 10.3551724,4.939 C10.2648966,5.1407931 9.955,5.32855172 9.71831034,5.36382759 C9.27224138,5.43058621 8.80948276,5.38355172 8.3527931,5.38355172 Z M18.8206207,4.07910345 C18.6203448,4.80775862 17.9986552,5.324 17.2153793,5.37444828 C16.786,5.40175862 16.3539655,5.379 15.9215517,5.379 L15.9215517,5.38203448 C15.4906552,5.38203448 15.0525517,5.43248276 14.6322759,5.36382759 C14.3678966,5.32096552 14.0121034,5.15293103 13.9187931,4.94241379 C13.827,4.73606897 13.9278966,4.32831034 14.0944138,4.14206897 C14.6853793,3.48206897 15.3165517,2.8527931 15.9776897,2.26334483 C16.5811724,1.72586207 17.4425862,1.71334483 18.0931034,2.15031034 C18.7398276,2.58196552 19.023931,3.33641379 18.8206207,4.07910345 Z"></path>
                    </g>
                </g>
            </g>
        </g>
    </g>
</svg>