<?xml version="1.0" encoding="UTF-8"?>
<svg width="14px" height="14px" viewBox="0 0 14 14" version="1.1" xmlns="http://www.w3.org/2000/svg" xmlns:xlink="http://www.w3.org/1999/xlink">
    <!-- Generator: Sketch 40.3 (33839) - http://www.bohemiancoding.com/sketch -->
    <title>Иконка - Знак вопроса</title>
    <desc>Created with Sketch.</desc>
    <defs></defs>
    <g id="Авиабилеты" stroke="none" stroke-width="1" fill="none" fill-rule="evenodd">
        <g id="Результаты-поиска---Авиабилеты---Подробнее" transform="translate(-673.000000, -1095.000000)" fill="#9CA6B0">
            <g id="Иконка---Знак-вопроса" transform="translate(672.000000, 1094.000000)">
                <g id="noun_620735">
                    <g transform="translate(1.000000, 1.000000)">
                        <g id="BS-Question-Standard-Circle">
                            <path d="M7,1.24444444 C10.1787056,1.24444444 12.7555556,3.82129444 12.7555556,7 C12.7555556,10.1787056 10.1787056,12.7555556 7,12.7555556 C3.82129444,12.7555556 1.24444444,10.1787056 1.24444444,7 C1.24444444,3.82129444 3.82129444,1.24444444 7,1.24444444 L7,1.24444444 Z M7,0 C3.13400675,1.24344979e-15 5.5264435e-16,3.13400675 0,7 C-4.14483263e-16,10.8659932 3.13400675,14 7,14 C10.8659932,14 14,10.8659932 14,7 C14,5.14348457 13.2625021,3.36300718 11.9497475,2.05025253 C10.6369928,0.737497883 8.85651543,6.90805438e-16 7,5.5264435e-16 L7,0 Z" id="Shape"></path>
                            <path d="M7.60666667,8.45911111 L6.39333333,8.45911111 L6.39333333,7.80266667 C6.37980393,7.58218723 6.41430212,7.36139878 6.49444444,7.15555556 C6.61444284,6.94947897 6.7649651,6.76276844 6.94088889,6.60177778 L7.71866667,5.824 C7.88433056,5.64254606 7.97301421,5.40382527 7.966,5.15822222 C7.97331458,4.91192264 7.8800918,4.67324988 7.70777778,4.49711111 C7.53222516,4.32046798 7.2908766,4.22516913 7.042,4.23422222 C6.79027318,4.22629688 6.54534844,4.31667914 6.35911111,4.48622222 C6.17479577,4.66327482 6.06375136,4.90313075 6.048,5.15822222 L4.74755556,5.15822222 C4.7892408,4.57954185 5.0575558,4.04067591 5.49422222,3.65866667 C5.94197694,3.28712969 6.51025198,3.09235578 7.09177778,3.11111111 C7.65677731,3.08732249 8.2106824,3.27288069 8.64733333,3.63222222 C9.04866667,3.97962963 9.24933333,4.46496296 9.24933333,5.08822222 C9.26300693,5.47733876 9.13722687,5.8585406 8.89466667,6.16311111 C8.79735231,6.29025942 8.69350914,6.41227515 8.58355556,6.52866667 C8.512,6.60022222 8.41711111,6.69148148 8.29888889,6.80244444 C8.18066667,6.91340741 8.08007407,7.01037037 7.99711111,7.09333333 C7.91414815,7.1762963 7.84777778,7.2462963 7.798,7.30333333 C7.65811699,7.4966081 7.58991442,7.732567 7.60511111,7.97066667 L7.60666667,8.45911111 Z M7.84466667,10.0488889 C7.84529609,10.3906655 7.63989921,10.6991387 7.32431925,10.8303673 C7.0087393,10.961596 6.64517826,10.8897143 6.40328264,10.6482642 C6.16138702,10.4068141 6.08883536,10.0433861 6.21948204,9.72756482 C6.35012872,9.4117435 6.65822279,9.20577836 7,9.20577778 C7.46588971,9.20577699 7.84380867,9.58299997 7.84466667,10.0488889 L7.84466667,10.0488889 Z" id="Shape"></path>
                        </g>
                    </g>
                </g>
            </g>
        </g>
    </g>
</svg>