<?xml version="1.0" encoding="UTF-8"?>
<svg width="28px" height="16px" viewBox="0 0 28 16" version="1.1" xmlns="http://www.w3.org/2000/svg" xmlns:xlink="http://www.w3.org/1999/xlink">
    <!-- Generator: Sketch 41 (35326) - http://www.bohemiancoding.com/sketch -->
    <title>Иконка - Билет Blue</title>
    <desc>Created with Sketch.</desc>
    <defs></defs>
    <g id="Личный-кабинет" stroke="none" stroke-width="1" fill="none" fill-rule="evenodd">
        <g id="Заявка-с-трансфером" transform="translate(-1507.000000, -16.000000)" fill="#0054B9">
            <g id="Иконка---Билет-Blue" transform="translate(1507.000000, 16.000000)">
                <g id="Group">
                    <g>
                        <g>
                            <g>
                                <path d="M3,8 C3,9.657 1.656,11 0,11 L0,15.0001925 C0,15.5523709 0.439813137,16 0.996534824,16 L27.0034652,16 C27.5538362,16 28,15.5562834 28,15.0001925 L28,11 C26.344,11 25,9.657 25,8 C25,6.343 26.344,5 28,5 L28,0.999807492 C28,0.447629061 27.5601869,0 27.0034652,0 L0.996534824,0 C0.446163838,0 0,0.443716645 0,0.999807492 L0,5 C1.656,5 3,6.343 3,8 Z M1,1 L19,1 L19,3 L20,3 L20,1 L27,1 L27,4.127 C25.277,4.571 24,6.14 24,8 C24,9.86 25.277,11.429 27,11.873 L27,15 L20,15 L20,13 L19,13 L19,15 L1,15 L1,11.873 C2.723,11.429 4,9.86 4,8 C4,6.14 2.723,4.571 1,4.127 L1,1 L1,1 Z" id="Shape"></path>
                                <rect id="Rectangle-path" x="19" y="4" width="1" height="2"></rect>
                                <rect id="Rectangle-path" x="19" y="7" width="1" height="2"></rect>
                                <rect id="Rectangle-path" x="19" y="10" width="1" height="2"></rect>
                                <rect id="Rectangle-path" x="7" y="5" width="8" height="1"></rect>
                                <rect id="Rectangle-path" x="7" y="7" width="8" height="1"></rect>
                                <rect id="Rectangle-path" x="7" y="10" width="4" height="1"></rect>
                            </g>
                        </g>
                    </g>
                </g>
            </g>
        </g>
    </g>
</svg>