<?xml version="1.0" encoding="UTF-8"?>
<svg width="14px" height="14px" viewBox="0 0 14 14" version="1.1" xmlns="http://www.w3.org/2000/svg" xmlns:xlink="http://www.w3.org/1999/xlink">
    <!-- Generator: Sketch 41.2 (35397) - http://www.bohemiancoding.com/sketch -->
    <title>Иконка - Link</title>
    <desc>Created with Sketch.</desc>
    <defs></defs>
    <g id="Перелет-+-Отель" stroke="none" stroke-width="1" fill="none" fill-rule="evenodd">
        <g id="DP---Результаты-поиска-Авиа" transform="translate(-1421.000000, -101.000000)" fill="#0054B9">
            <g id="Карточка---DP-Normal" transform="translate(480.000000, 96.000000)">
                <g id="Иконка---Link" transform="translate(940.000000, 4.000000)">
                    <g id="Shape">
                        <path d="M11.9205066,14.9993106 C11.5717263,14.9993106 11.2241069,14.8784067 10.8943991,14.6344429 C10.7917386,14.5591474 10.6864245,14.4680964 10.583764,14.3656017 L7.99652028,11.778358 C7.14272984,10.9244017 7.14571512,9.94191244 8.00464688,9.08281484 L8.15374509,8.93371662 L7.07605856,7.85619594 L6.92696035,8.00529415 C6.06802859,8.86439176 5.08255408,8.86439176 4.22329063,8.00529415 L1.63621273,5.4180504 C1.21197109,4.99380877 0.997860085,4.54021187 1.00001612,4.07003007 C1.00200631,3.60150676 1.21893675,3.14807571 1.64450517,2.72250728 L2.7225234,1.64448905 C3.14825768,1.21892063 3.60152288,1.00215604 4.06988034,1 L4.07668015,1 C4.54454006,1 4.99581508,1.21394516 5.41806652,1.63636245 L8.00531027,4.22344035 C8.86440788,5.08270381 8.86440788,6.06817832 8.00531027,6.92727592 L7.85621206,7.07637414 L8.93389859,8.15389482 L9.08283096,8.00479661 C9.94192856,7.1460307 10.9244178,7.14271372 11.7783741,7.99650416 L14.3656178,10.5840796 C15.1137625,11.3318926 15.2044819,12.208736 14.6148888,12.9895529 C14.5342862,13.0922134 14.4497032,13.1869132 14.3573254,13.2794569 L13.2793072,14.3574751 C12.8527436,14.7835411 12.385713,14.9991447 11.9205066,14.9993106 Z M8.93373274,9.71353842 L8.78480038,9.86263664 C8.35707591,10.2901953 8.35491988,10.5769481 8.77634208,10.9985362 L11.3637517,13.5856141 C11.4267743,13.6486367 11.4888018,13.7025376 11.5485074,13.7463217 C11.7768814,13.9156535 12.0366009,14.0403719 12.4993195,13.5773216 L13.5773377,12.4993034 C13.6387018,12.4379393 13.6937637,12.3764093 13.7408648,12.316372 C13.9111917,12.0906515 14.0455293,11.823303 13.5854643,11.3637356 L10.9982206,8.77616011 C10.5767984,8.35506961 10.2900455,8.3567281 9.86248691,8.78461841 L9.7133887,8.93355077 L10.8907505,10.1109125 C11.1061882,10.3263503 11.1061882,10.6754624 10.8907505,10.8909002 C10.6753127,11.1060063 10.3265323,11.1060063 10.1110945,10.8909002 L8.93373274,9.71353842 Z M4.07634845,2.10272972 L4.07468996,2.10272972 C3.90751421,2.10355897 3.71496357,2.21169249 3.50234521,2.42431085 L2.42432698,3.50232908 C2.21170861,3.7147816 2.10357509,3.90733224 2.10291169,4.07450799 C2.1022483,4.23969355 2.20756239,4.42942476 2.41620038,4.63773105 L5.00344413,7.22514065 C5.43116859,7.65286512 5.71991163,7.65303096 6.14747024,7.22514065 L6.29656846,7.07620829 L5.3265179,6.10615773 C5.11124595,5.89071993 5.11124595,5.54160788 5.3265179,5.32617008 C5.5419557,5.11106398 5.8909019,5.11106398 6.1063397,5.32617008 L7.07639026,6.29638649 L7.22548847,6.14728827 C7.65321294,5.71972966 7.65321294,5.43098662 7.22548847,5.00326216 L4.63824472,2.41618426 C4.43027013,2.20820966 4.24120231,2.10272972 4.07634845,2.10272972 Z"></path>
                    </g>
                </g>
            </g>
        </g>
    </g>
</svg>