<?xml version="1.0" encoding="UTF-8"?>
<svg width="112px" height="20px" viewBox="0 0 112 20" version="1.1" xmlns="http://www.w3.org/2000/svg" xmlns:xlink="http://www.w3.org/1999/xlink">
    <!-- Generator: Sketch 40.3 (33839) - http://www.bohemiancoding.com/sketch -->
    <title>tripadvisor</title>
    <desc>Created with Sketch.</desc>
    <defs></defs>
    <g id="Symbols" stroke="none" stroke-width="1" fill="none" fill-rule="evenodd">
        <g id="Подвал" transform="translate(-675.000000, -252.000000)" fill="#303C47">
            <g id="tripadvisor" transform="translate(675.000000, 252.000000)">
                <path d="M7.13770819,11.3306122 C7.13770819,12.0779592 7.72959431,12.6836735 8.4593879,12.6836735 C9.18918149,12.6836735 9.78066904,12.0779592 9.78066904,11.3306122 C9.78066904,10.5832653 9.18918149,9.97714286 8.4593879,9.97714286 C7.72959431,9.97714286 7.13770819,10.5832653 7.13770819,11.3306122" id="Fill-1"></path>
                <path d="M23.0500783,11.3306122 C23.0500783,12.0779592 23.6415658,12.6836735 24.3713594,12.6836735 C25.1015516,12.6836735 25.6930391,12.0779592 25.6930391,11.3306122 C25.6930391,10.5832653 25.1015516,9.97714286 24.3713594,9.97714286 C23.6415658,9.97714286 23.0500783,10.5832653 23.0500783,11.3306122" id="Fill-3"></path>
                <path d="M6.54582206,13.2897959 C6.03484698,12.7665306 5.75345196,12.0706122 5.75345196,11.3306122 C5.75345196,10.5902041 6.03484698,9.89469388 6.54582206,9.37142857 C7.05719573,8.8477551 7.73637011,8.55959184 8.4593879,8.55959184 C9.95125979,8.55959184 11.1649253,9.80285714 11.1649253,11.3306122 C11.1649253,12.8583673 9.95125979,14.1012245 8.4593879,14.1012245 C7.73637011,14.1012245 7.05719573,13.8130612 6.54582206,13.2897959 L6.54582206,13.2897959 L6.54582206,13.2897959 Z M5.70044128,8.50530612 C4.96347331,9.26 4.55772242,10.2632653 4.55772242,11.3306122 C4.55772242,12.3979592 4.96347331,13.4012245 5.70044128,14.1555102 C6.43740925,14.9102041 7.41711032,15.3257143 8.4593879,15.3257143 C10.6105053,15.3257143 12.3606548,13.5334694 12.3606548,11.3306122 C12.3606548,9.12734694 10.6105053,7.33510204 8.4593879,7.33510204 C7.41711032,7.33510204 6.43740925,7.75061224 5.70044128,8.50530612 L5.70044128,8.50530612 L5.70044128,8.50530612 Z" id="Fill-4"></path>
                <path d="M22.4581922,13.2897959 C21.9472171,12.7665306 21.6658221,12.0706122 21.6658221,11.3306122 C21.6658221,10.5902041 21.9472171,9.89469388 22.4581922,9.37142857 C22.9691673,8.8477551 23.6487402,8.55959184 24.3713594,8.55959184 C25.8636299,8.55959184 27.0772954,9.80285714 27.0772954,11.3306122 C27.0772954,12.8583673 25.8636299,14.1012245 24.3713594,14.1012245 C23.6487402,14.1012245 22.9691673,13.8130612 22.4581922,13.2897959 L22.4581922,13.2897959 L22.4581922,13.2897959 Z M21.6128114,8.50530612 C20.8758434,9.26 20.4700925,10.2632653 20.4700925,11.3306122 C20.4700925,12.3979592 20.8758434,13.4012245 21.6128114,14.1555102 C22.3497794,14.9102041 23.3294804,15.3257143 24.3713594,15.3257143 C26.5228754,15.3257143 28.2730249,13.5334694 28.2730249,11.3306122 C28.2730249,9.12734694 26.5228754,7.33510204 24.3713594,7.33510204 C23.3294804,7.33510204 22.3497794,7.75061224 21.6128114,8.50530612 L21.6128114,8.50530612 L21.6128114,8.50530612 Z" id="Fill-5"></path>
                <path d="M24.3713594,18.0130612 C20.7730107,18.0130612 17.8454662,15.0155102 17.8454662,11.3306122 C17.8454662,7.64571429 20.7730107,4.6477551 24.3713594,4.6477551 C27.9697082,4.6477551 30.8972527,7.64571429 30.8972527,11.3306122 C30.8972527,15.0155102 27.9697082,18.0130612 24.3713594,18.0130612 L24.3713594,18.0130612 L24.3713594,18.0130612 Z M8.4593879,18.0130612 C4.86103915,18.0130612 1.93349466,15.0155102 1.93349466,11.3306122 C1.93349466,7.64571429 4.86103915,4.6477551 8.4593879,4.6477551 C12.0573381,4.6477551 14.9848826,7.64571429 14.9848826,11.3306122 C14.9848826,15.0155102 12.0573381,18.0130612 8.4593879,18.0130612 L8.4593879,18.0130612 L8.4593879,18.0130612 Z M30.6585053,6.07673469 C30.9646121,5.14285714 31.4329395,4.04285714 32.0798292,3.38040816 L26.7476726,3.38040816 C26.6595872,3.35265306 26.567516,3.33387755 26.4778363,3.30897959 C26.1880712,2.84367347 24.2047544,0.222857143 16.2778648,0.222857143 C7.57853381,0.222857143 6.03683986,3.38040816 6.03683986,3.38040816 L0.475501779,3.38040816 C1.18496797,4.10693878 1.67800712,5.35714286 1.97972954,6.34 C0.954989324,7.73183673 0.339188612,9.45673469 0.339188612,11.3306122 C0.339188612,15.9155102 3.98177936,19.6457143 8.4593879,19.6457143 C10.9413238,19.6457143 13.1637865,18.4967351 14.6544626,16.6934686 L16.497879,19.3371424 L18.0889964,16.59102 C19.579274,18.4538784 21.8415943,19.6457143 24.3713594,19.6457143 C28.8485694,19.6457143 32.4915587,15.9155102 32.4915587,11.3306122 C32.4915587,9.33918367 31.8028185,7.50979592 30.6585053,6.07673469 L30.6585053,6.07673469 L30.6585053,6.07673469 Z" id="Fill-6"></path>
                <path d="M16.7732954,1.18163265 C22.3342349,1.18163265 24.426363,3.54938776 24.426363,3.54938776 C24.426363,3.54938776 18.48,2.53469388 16.497879,10.0338776 C14.515758,2.53469388 8.56939502,3.54938776 8.56939502,3.54938776 C8.56939502,3.54938776 10.6619217,1.18163265 16.2228612,1.18163265 L16.7732954,1.18163265" id="Fill-7"></path>
                <path d="M38.4961139,5.18693878 L38.4961139,7.31714286 L40.7560427,7.31714286 L40.7560427,8.5477551 L38.4961139,8.5477551 L38.4961139,13.3420408 C38.4961139,14.4440816 38.8010249,15.0681633 39.6798861,15.0681633 C40.1103488,15.0681633 40.361452,15.0314286 40.5946192,14.9583673 L40.666363,16.1889788 C40.361452,16.2991833 39.8771815,16.4089796 39.267758,16.4089796 C38.5319858,16.4089796 37.9400996,16.1518363 37.5634448,15.7297959 C37.1329822,15.2334694 36.9536228,14.4440816 36.9536228,13.3967347 L36.9536228,8.5477551 L35.608427,8.5477551 L35.608427,7.31714286 L36.9536228,7.31714286 L36.9536228,5.68244898 L38.4961139,5.18693878" id="Fill-8"></path>
                <path d="M42.1729822,10.0910204 C42.1729822,9.04408163 42.1550463,8.14408163 42.1012384,7.31714286 L43.482306,7.31714286 L43.5540498,9.06244898 L43.6078577,9.06244898 C44.0024484,7.86816327 44.9709893,7.1155102 46.02921,7.1155102 C46.1906335,7.1155102 46.3161851,7.13387755 46.4596726,7.17020408 L46.4596726,8.67632653 C46.2803132,8.65795918 46.1188897,8.64 45.9036584,8.64 C44.7916299,8.64 44.0024484,9.50326531 43.7872171,10.6971429 C43.7513452,10.9359184 43.7334093,11.1926531 43.7334093,11.4685714 L43.7334093,16.2073469 L42.1550463,16.2073469 L42.1729822,10.0910204" id="Fill-9"></path>
                <path d="M47.7151886,16.2073469 L49.2935516,16.2073469 L49.2935516,7.31714286 L47.7151886,7.31714286 L47.7151886,16.2073469 L47.7151886,16.2073469 Z M48.4684982,5.68244898 C47.8766121,5.68244898 47.4820214,5.20489796 47.4820214,4.6355102 C47.4820214,4.06612245 47.894548,3.60693878 48.5043701,3.60693878 C49.1141922,3.60693878 49.5087829,4.06612245 49.5087829,4.6355102 C49.5087829,5.20489796 49.1141922,5.68244898 48.4864342,5.68244898 L48.4684982,5.68244898 L48.4684982,5.68244898 L48.4684982,5.68244898 Z" id="Fill-10"></path>
                <path d="M53.1139075,12.5885714 C53.1139075,12.8089796 53.1318434,13.0477551 53.1852527,13.2497959 C53.4546904,14.3706122 54.4228327,15.1420408 55.5348612,15.1420408 C57.2033025,15.1420408 58.1718434,13.7461224 58.1718434,11.7073469 C58.1718434,9.92530612 57.2750463,8.40122449 55.6070036,8.40122449 C54.5304484,8.40122449 53.5084982,9.17265306 53.2035872,10.3844898 C53.1677153,10.604898 53.1139075,10.8436735 53.1139075,11.0461224 L53.1139075,12.5885714 L53.1139075,12.5885714 L53.1139075,12.5885714 Z M51.5355445,10.2195918 C51.5355445,9.08081633 51.5176085,8.16244898 51.4638007,7.31714286 L52.8807402,7.31714286 L52.9704199,8.84204082 L53.0062918,8.84204082 C53.6336512,7.73959184 54.6743345,7.1155102 56.0733381,7.1155102 C58.1897794,7.1155102 59.7681423,8.93387755 59.7681423,11.6334694 C59.7681423,14.8297959 57.8489964,16.4089796 55.8222349,16.4089796 C54.6563986,16.4089796 53.6699217,15.8946939 53.1497794,15.0130612 L53.1139075,15.0130612 L53.1139075,19.8440816 L51.5355445,19.8440816 L51.5355445,10.2195918 L51.5355445,10.2195918 L51.5355445,10.2195918 Z" id="Fill-11"></path>
                <path d="M65.9377082,11.6702041 C64.2158577,11.6334694 62.2608399,11.9461224 62.2608399,13.6726531 C62.2608399,14.737551 62.9424057,15.215102 63.7315872,15.215102 C64.8794875,15.215102 65.6148612,14.4808163 65.8659644,13.7273469 C65.9197722,13.562449 65.9377082,13.3783673 65.9377082,13.2134694 L65.9377082,11.6702041 L65.9377082,11.6702041 L65.9377082,11.6702041 Z M67.4801993,14.0763265 C67.4801993,14.8481633 67.5160712,15.6012245 67.6057509,16.2073469 L66.1888114,16.2073469 L66.0453238,15.0865306 L65.991516,15.0865306 C65.5251815,15.784898 64.5745765,16.4089796 63.3369964,16.4089796 C61.579274,16.4089796 60.6824769,15.1420408 60.6824769,13.8559184 C60.6824769,11.7073469 62.5478149,10.5318367 65.9018363,10.5502041 L65.9018363,10.3665306 C65.9018363,9.63183673 65.7045409,8.29102041 63.9288826,8.30897959 C63.1038292,8.30897959 62.2608399,8.5477551 61.6510178,8.97061224 L61.2922989,7.88653061 C62.0097367,7.42734694 63.0679573,7.1155102 64.1620498,7.1155102 C66.8345053,7.1155102 67.4801993,8.97061224 67.4801993,10.7518367 L67.4801993,14.0763265 L67.4801993,14.0763265 L67.4801993,14.0763265 Z" id="Fill-12"></path>
                <path d="M75.5509751,10.9359184 C75.5509751,10.715102 75.5330391,10.4583673 75.4796299,10.2379592 C75.2464626,9.22734694 74.3851388,8.38285714 73.2017651,8.38285714 C71.5691957,8.38285714 70.6006548,9.8522449 70.6006548,11.7991837 C70.6006548,13.6171429 71.479516,15.104898 73.1658932,15.104898 C74.2237153,15.104898 75.1926548,14.3706122 75.4796299,13.1767347 C75.5330391,12.9563265 75.5509751,12.7359184 75.5509751,12.4783673 L75.5509751,10.9359184 L75.5509751,10.9359184 L75.5509751,10.9359184 Z M77.1293381,3.16612245 L77.1293381,13.9114286 C77.1293381,14.7012245 77.147274,15.6012245 77.2014804,16.2073469 L75.7841423,16.2073469 L75.7127972,14.6644898 L75.6769253,14.6644898 C75.1926548,15.6559184 74.1519715,16.4089796 72.7354306,16.4089796 C70.6365267,16.4089796 69.0043559,14.5906122 69.0043559,11.8906122 C68.9868185,8.91510204 70.7979502,7.1155102 72.8964555,7.1155102 C74.2416512,7.1155102 75.1384484,7.75795918 75.5151032,8.45591837 L75.5509751,8.45591837 L75.5509751,3.16612245 L77.1293381,3.16612245 L77.1293381,3.16612245 L77.1293381,3.16612245 Z" id="Fill-13"></path>
                <path d="M79.9640142,7.31714286 L81.6675302,12.295102 C81.9545053,13.1216327 82.1876726,13.8559184 82.367032,14.5906122 L82.4212384,14.5906122 C82.6181352,13.8559184 82.869637,13.1216327 83.1562135,12.295102 L84.8421922,7.31714286 L86.4922989,7.31714286 L83.0844698,16.2073469 L81.5778505,16.2073469 L78.277637,7.31714286 L79.9640142,7.31714286" id="Fill-14"></path>
                <path d="M87.6039288,16.2073469 L89.1822918,16.2073469 L89.1822918,7.31714286 L87.6039288,7.31714286 L87.6039288,16.2073469 L87.6039288,16.2073469 Z M88.3572384,5.68244898 C87.7657509,5.68244898 87.3711601,5.20489796 87.3711601,4.6355102 C87.3711601,4.06612245 87.7836868,3.60693878 88.3931103,3.60693878 C89.0029324,3.60693878 89.3975231,4.06612245 89.3975231,4.6355102 C89.3975231,5.20489796 89.0029324,5.68244898 88.3751744,5.68244898 L88.3572384,5.68244898 L88.3572384,5.68244898 L88.3572384,5.68244898 Z" id="Fill-15"></path>
                <path d="M91.2090534,14.5722449 C91.6933238,14.8665306 92.5187758,15.1967347 93.3075587,15.1967347 C94.4375231,15.1967347 94.976,14.6273469 94.976,13.8746939 C94.976,13.1032653 94.5276014,12.6804082 93.3797011,12.2395918 C91.8013381,11.6518367 91.0655658,10.7889796 91.0655658,9.72326531 C91.0655658,8.29102041 92.2134662,7.1155102 94.0612669,7.1155102 C94.9401281,7.1155102 95.7109751,7.35428571 96.1773096,7.66612245 L95.8006548,8.82367347 C95.4598719,8.62163265 94.8321139,8.30897959 94.0249964,8.30897959 C93.0923274,8.30897959 92.590121,8.86040816 92.590121,9.52163265 C92.590121,10.2742857 93.0923274,10.604898 94.2222918,11.0461224 C95.7109751,11.6155102 96.5005552,12.3869388 96.5005552,13.7273469 C96.5005552,15.3073469 95.2984484,16.4089796 93.2716868,16.4089796 C92.3210819,16.4089796 91.4422206,16.1518363 90.8323986,15.784898 L91.2090534,14.5722449" id="Fill-16"></path>
                <path d="M101.737053,15.1967347 C103.244071,15.1967347 104.374036,13.7461224 104.374036,11.7257143 C104.374036,10.2195918 103.638263,8.32734694 101.772925,8.32734694 C99.9259217,8.32734694 99.1184057,10.0910204 99.1184057,11.7804082 C99.1184057,13.7273469 100.194562,15.1967347 101.719516,15.1967347 L101.737053,15.1967347 L101.737053,15.1967347 L101.737053,15.1967347 Z M101.683644,16.4089796 C99.351573,16.4089796 97.5221068,14.6457143 97.5221068,11.8359184 C97.5221068,8.86040816 99.4416512,7.1155102 101.826733,7.1155102 C104.319829,7.1155102 106.005808,8.97061224 106.005808,11.6702041 C106.005808,14.9763265 103.763815,16.4089796 101.70158,16.4089796 L101.683644,16.4089796 L101.683644,16.4089796 L101.683644,16.4089796 Z" id="Fill-17"></path>
                <path d="M107.637979,10.0910204 C107.637979,9.04408163 107.620043,8.14408163 107.566235,7.31714286 L108.947302,7.31714286 L109.019046,9.06244898 L109.072854,9.06244898 C109.467445,7.86816327 110.435986,7.1155102 111.494206,7.1155102 C111.65563,7.1155102 111.781181,7.13387755 111.924669,7.17020408 L111.924669,8.67632653 C111.74531,8.65795918 111.584285,8.64 111.369053,8.64 C110.256626,8.64 109.467445,9.50326531 109.252214,10.6971429 C109.216342,10.9359184 109.198406,11.1926531 109.198406,11.4685714 L109.198406,16.2073469 L107.620043,16.2073469 L107.637979,10.0910204" id="Fill-18"></path>
            </g>
        </g>
    </g>
</svg>