<?xml version="1.0" encoding="UTF-8"?>
<svg width="20px" height="20px" viewBox="0 0 20 20" version="1.1" xmlns="http://www.w3.org/2000/svg" xmlns:xlink="http://www.w3.org/1999/xlink">
    <!-- Generator: Sketch 40.3 (33839) - http://www.bohemiancoding.com/sketch -->
    <title>Иконка - Twitter</title>
    <desc>Created with Sketch.</desc>
    <defs></defs>
    <g id="Symbols" stroke="none" stroke-width="1" fill="none" fill-rule="evenodd">
        <g id="Подвал" transform="translate(-1366.000000, -33.000000)" fill="#778695">
            <g id="Соц-сети">
                <g transform="translate(1286.000000, 31.000000)">
                    <g id="Иконка---Twitter" transform="translate(78.000000, 0.000000)">
                        <g id="icon" transform="translate(2.000000, 2.000000)">
                            <path d="M0,2.99420208 C0,1.34054993 1.34331197,0 2.99420208,0 L17.0057979,0 C18.6594501,0 20,1.34331197 20,2.99420208 L20,17.0057979 C20,18.6594501 18.656688,20 17.0057979,20 L2.99420208,20 C1.34054993,20 0,18.656688 0,17.0057979 L0,2.99420208 Z M19.3700028,4.25971878 C18.879239,4.96553626 18.2878412,5.5789909 17.5930521,6.09043286 C17.5392887,6.12213951 17.5227461,6.1662531 17.5227461,6.23104494 C17.5282603,6.46677695 17.5337745,6.70940171 17.5282603,6.94651227 C17.5117177,7.57650951 17.4358974,8.19547836 17.3132065,8.81031155 C17.0595533,10.0317066 16.6184174,11.1896884 15.9939344,12.27185 C15.3901296,13.3167907 14.6415771,14.2431762 13.7427626,15.0399779 C12.9183899,15.7664737 12.008547,16.3482217 11.0008271,16.7907361 C10.1668045,17.1450234 9.29969672,17.3986766 8.40088227,17.5392887 C8.06175903,17.5930521 7.72677144,17.6357872 7.38764819,17.6523297 C7.36145575,17.6578439 7.31320651,17.630273 7.30769231,17.6895506 L7.15191618,17.6895506 C7.11331679,17.6578439 7.07609595,17.6619796 7.03749655,17.6895506 L5.97739178,17.6895506 C5.95533499,17.6619796 5.92914254,17.6578439 5.90157155,17.6895506 L5.71408878,17.6895506 C5.71408878,17.6840364 5.71822443,17.6840364 5.71822443,17.6785222 L5.72373863,17.673008 C5.69203198,17.6468156 5.65481114,17.6468156 5.62172594,17.6468156 C4.9807003,17.6040805 4.35070306,17.4951751 3.72622002,17.3338848 C2.72952854,17.0760959 1.79349325,16.6832093 0.904328646,16.1662531 C0.791287565,16.0959471 0.683760684,16.025641 0.544527157,15.9443066 C2.68127929,16.1607389 4.57678522,15.6272401 6.28480838,14.3396747 C4.28039702,14.2597188 3.03143093,12.8646264 2.67162945,11.6418528 C3.2464847,11.7397298 3.81306865,11.7287014 4.37827406,11.5729253 C3.47808106,11.3675214 2.73504274,10.9098428 2.15880893,10.1943755 C1.57843948,9.47752964 1.30272953,8.64764268 1.30272953,7.71712159 C1.57843948,7.86738351 1.85277089,7.98042459 2.13813069,8.06175903 C2.42900469,8.14171492 2.72539289,8.18996416 3.04245933,8.19547836 C1.00634133,6.76316515 1.03942652,4.31348222 1.86793493,3.02591674 C2.09539564,3.31127654 2.34215605,3.58698649 2.60132341,3.8447753 C3.31127654,4.55610698 4.09842845,5.15853322 4.9751861,5.65481114 C6.47229115,6.49986215 8.07692308,6.96856907 9.79046044,7.07058175 C9.83870968,7.07609595 9.85938792,7.06506755 9.84422388,7.01130411 C9.80011028,6.81692859 9.77391784,6.62393162 9.76288944,6.42955611 C9.7201544,5.5900193 9.90901572,4.80286738 10.3708299,4.09842845 C11.0283981,3.10725117 11.9437552,2.51447477 13.1237938,2.34215605 C13.1499862,2.34215605 13.1927213,2.35869865 13.1872071,2.31044941 L13.2850841,2.31044941 C13.3057623,2.33112765 13.3223049,2.33112765 13.3388475,2.31044941 L13.9302454,2.31044941 C13.9523022,2.33112765 13.9798732,2.33664185 14.0005514,2.31044941 L14.0984285,2.31044941 C14.0984285,2.35869865 14.1356493,2.34215605 14.1618417,2.34215605 C14.2597188,2.36421285 14.3617315,2.37524125 14.4582299,2.39591949 C15.2178109,2.55720982 15.8698649,2.92390405 16.4130135,3.47394541 C16.4516129,3.51116625 16.4833195,3.5373587 16.5425972,3.52219465 C17.1946512,3.38709677 17.8191343,3.17204301 18.4160463,2.87565481 C18.5828508,2.78880618 18.7510339,2.69782189 18.9385167,2.60132341 C18.7882548,3.05348773 18.573201,3.45188861 18.2878412,3.81306865 C18.0024814,4.17838434 17.6578439,4.48028674 17.2690929,4.7284257 C18.0231596,4.64157706 18.7400055,4.44306589 19.4554728,4.1301351 C19.4127378,4.19492694 19.3961952,4.22663358 19.3700028,4.25971878 L19.3700028,4.25971878 Z" id="Fill-1"></path>
                        </g>
                    </g>
                </g>
            </g>
        </g>
    </g>
</svg>