<?xml version="1.0" encoding="UTF-8"?>
<svg width="20px" height="20px" viewBox="0 0 20 20" version="1.1" xmlns="http://www.w3.org/2000/svg" xmlns:xlink="http://www.w3.org/1999/xlink">
    <!-- Generator: Sketch 40.3 (33839) - http://www.bohemiancoding.com/sketch -->
    <title>Иконка - VK</title>
    <desc>Created with Sketch.</desc>
    <defs></defs>
    <g id="Symbols" stroke="none" stroke-width="1" fill="none" fill-rule="evenodd">
        <g id="Подвал" transform="translate(-1288.000000, -33.000000)" fill="#778695">
            <g id="Соц-сети">
                <g transform="translate(1286.000000, 31.000000)">
                    <g id="Иконка---VK">
                        <g id="icon" transform="translate(2.000000, 2.000000)">
                            <path d="M0,2.99420208 C0,1.34054993 1.34331197,-1.77635684e-15 2.99420208,-1.77635684e-15 L17.0057979,-1.77635684e-15 C18.6594501,-1.77635684e-15 20,1.34331197 20,2.99420208 L20,17.0057979 C20,18.6594501 18.656688,20 17.0057979,20 L2.99420208,20 C1.34054993,20 0,18.656688 0,17.0057979 L0,2.99420208 Z M15.9297331,11.2647775 C16.4749531,11.7966994 17.0515565,12.297504 17.5409247,12.8855437 C17.757151,13.1453876 17.961675,13.4134762 18.1175282,13.7145441 C18.3388077,14.1459328 18.1382731,14.6185455 17.7528957,14.6446096 L15.358183,14.6435458 C14.7400896,14.6943443 14.2475299,14.4451389 13.8320988,14.0222609 C13.5017753,13.6855543 13.1929946,13.3251772 12.8741074,12.9770343 C12.7443184,12.8336813 12.6070825,12.699637 12.4440485,12.5927206 C12.1169164,12.3807497 11.8331361,12.4451123 11.6461655,12.7858083 C11.4560034,13.1328874 11.411322,13.5182649 11.3937685,13.9047062 C11.3677044,14.4688094 11.1974893,14.6164178 10.6312584,14.6435458 C9.41980611,14.6996636 8.27085467,14.5156186 7.2038192,13.90577 C6.26151944,13.367731 5.53225442,12.6070825 4.89740555,11.7469647 C3.66015506,10.0700807 2.71253607,8.22909879 1.86172688,6.33519063 C1.66943709,5.90832325 1.80986449,5.6795968 2.27928563,5.67135201 C3.06174284,5.65592628 3.84393409,5.657788 4.62532746,5.67028817 C4.94315084,5.67560739 5.1540579,5.85725874 5.27560207,6.15752869 C5.69848003,7.19663825 6.21577415,8.18548119 6.86498491,9.10304658 C7.03865743,9.34719877 7.21525552,9.5902871 7.46552481,9.76262982 C7.74292211,9.95385577 7.95489302,9.89135494 8.08574582,9.58071251 C8.16899161,9.38336946 8.20542826,9.17352624 8.22298169,8.96261918 C8.28521656,8.24053511 8.29266347,7.51765316 8.18548119,6.79769678 C8.11899094,6.34769079 7.86446628,6.05672948 7.4157901,5.97162196 C7.18706366,5.92800436 7.22137262,5.84396069 7.33148047,5.71284193 C7.52483411,5.48757297 7.70675142,5.34714557 8.06712855,5.34714557 L10.7735475,5.34714557 C11.2004149,5.43039136 11.2961609,5.62268115 11.3541403,6.05167622 L11.356268,9.05942898 C11.3512148,9.2256546 11.4395138,9.71794838 11.7376561,9.82699238 C11.976489,9.90598279 12.1355337,9.713693 12.2788867,9.56209524 C12.9270336,8.87432014 13.3895398,8.06101145 13.8028431,7.2195109 C13.9858243,6.84955917 14.1438051,6.46524555 14.2975306,6.08066597 C14.4108299,5.79608771 14.587428,5.65592628 14.9084429,5.66097953 L17.5140627,5.66417107 C17.5909254,5.66417107 17.6699158,5.66417107 17.7457147,5.67667123 C18.1840184,5.75247011 18.3044987,5.94156837 18.1683267,6.37056344 C17.9555579,7.04264684 17.5387971,7.60382452 17.1326746,8.16580008 C16.6972965,8.76740382 16.2339925,9.34799665 15.8018059,9.95279193 C15.4071198,10.5065227 15.4382372,10.7849838 15.9297331,11.2647775 L15.9297331,11.2647775 Z" id="Fill-1"></path>
                        </g>
                    </g>
                </g>
            </g>
        </g>
    </g>
</svg>