<?xml version="1.0" encoding="UTF-8"?>
<svg width="20px" height="20px" viewBox="0 0 20 20" version="1.1" xmlns="http://www.w3.org/2000/svg" xmlns:xlink="http://www.w3.org/1999/xlink">
    <!-- Generator: Sketch 40.3 (33839) - http://www.bohemiancoding.com/sketch -->
    <title>Иконка - YouTube</title>
    <desc>Created with Sketch.</desc>
    <defs></defs>
    <g id="Symbols" stroke="none" stroke-width="1" fill="none" fill-rule="evenodd">
        <g id="Подвал" transform="translate(-1418.000000, -33.000000)" fill="#778695">
            <g id="Соц-сети">
                <g transform="translate(1286.000000, 31.000000)">
                    <g id="Иконка---YouTube" transform="translate(130.000000, 0.000000)">
                        <g id="icon" transform="translate(2.000000, 2.000000)">
                            <path d="M0,2.99420208 C0,1.34054993 1.34331197,0 2.99420208,0 L17.0057979,0 C18.6594501,0 20,1.34331197 20,2.99420208 L20,17.0057979 C20,18.6594501 18.656688,20 17.0057979,20 L2.99420208,20 C1.34054993,20 0,18.656688 0,17.0057979 L0,2.99420208 Z M11.5232975,3.37606838 L12.492418,3.37606838 L12.492418,6.4460987 C12.492418,7.03749655 12.5144748,7.02233251 12.5365316,7.09125999 C12.5516956,7.17259443 12.6275159,7.35594155 12.853598,7.35594155 C13.0962228,7.35594155 13.1610146,7.16156603 13.1816929,7.08161015 C13.1982355,7.01130411 13.2147781,7.02233251 13.2147781,6.40749931 L13.2147781,3.37606838 L14.1894127,3.37606838 L14.1894127,7.98593879 L13.2037497,7.98593879 L13.2147781,7.75434243 L12.9128757,7.63027295 C12.8370554,7.78053488 12.7515853,7.89357596 12.6440585,7.9693962 C12.5310174,8.04521643 12.4124621,8.08795148 12.2663358,8.08795148 C12.0940171,8.08795148 11.9602978,8.05073063 11.8582851,7.98042459 C11.7548939,7.91011856 11.6859664,7.82464847 11.6363386,7.71160739 C11.5880893,7.59305211 11.5563827,7.45795423 11.5453543,7.33388475 C11.5288117,7.18362283 11.5232975,6.87620623 11.5232975,6.41852771 L11.5232975,3.37606838 Z M8.13620072,5.2936311 C8.13620072,4.81389578 8.18031431,4.44168734 8.254756,4.17838434 C8.33057623,3.93575958 8.46015991,3.74276261 8.64764268,3.59112214 C8.8475324,3.44086022 9.1053212,3.36503998 9.4237662,3.36503998 C9.6925834,3.36503998 9.91866556,3.41880342 10.1075269,3.51668045 C10.290874,3.61317894 10.4356217,3.74276261 10.5279846,3.88751034 C10.6299972,4.04328646 10.6947891,4.20595533 10.7320099,4.36724566 C10.7692308,4.53405018 10.7912876,4.80838158 10.7912876,5.17507582 L10.7912876,5.98290598 C10.7912876,6.46126275 10.7692308,6.80590019 10.7375241,7.02233251 C10.7058175,7.21532947 10.6299972,7.40419079 10.5224704,7.57650951 C10.4149435,7.74882823 10.2743314,7.87289771 10.1020127,7.9528536 C9.92417976,8.03970223 9.7146402,8.08243728 9.47752964,8.08243728 C9.20871243,8.08243728 8.98263027,8.04521643 8.79928315,7.9693962 C8.62696443,7.89909016 8.49738076,7.80259167 8.40639647,7.6674938 C8.31403364,7.52826027 8.2437276,7.35594155 8.20650675,7.15605183 C8.16377171,6.94651227 8.13620072,6.61290323 8.13620072,6.16487455 L8.13620072,5.2936311 Z M5.8588365,1.73421561 L6.65012407,4.28039702 C6.79073615,3.61869313 7.05955335,2.69782189 7.26909291,1.73421561 L7.98593879,1.73421561 L7.06506755,5.36807279 L7.05403915,5.40115798 L7.05403915,7.98593879 L6.21450234,7.98593879 L6.21450234,5.40115798 L6.20898814,5.37358699 L5.14199063,1.73421561 L5.8588365,1.73421561 Z M17.3228564,15.9925558 C17.2001654,17.1395092 16.1814171,18.0769231 15.0399779,18.1527433 C11.674938,18.297491 8.32506203,18.297491 4.96553626,18.1527433 C3.8227185,18.0769231 2.80534877,17.1395092 2.6757651,15.9925558 C2.55307417,14.1728701 2.55307417,12.3904053 2.6757651,10.581748 C2.80534877,9.4347946 3.8227185,8.49738076 4.96553626,8.41604632 C8.32506203,8.27129859 11.674938,8.27129859 15.0399779,8.41604632 C16.1814171,8.49738076 17.2001654,9.4347946 17.3228564,10.581748 C17.4469258,12.3904053 17.4469258,14.1728701 17.3228564,15.9925558 L17.3228564,15.9925558 Z M9.46098704,7.53377447 C9.60711332,7.53377447 9.7146402,7.44692583 9.76288944,7.30217811 C9.79046044,7.23187207 9.81665288,7.10228839 9.81665288,6.75765095 L9.81665288,4.76013234 C9.81665288,4.35621726 9.79046044,4.22663358 9.76840364,4.15219189 C9.7201544,4.00055142 9.60711332,3.91508133 9.46650124,3.91508133 C9.32726771,3.91508133 9.21974083,3.99503722 9.16459884,4.1466777 C9.1384064,4.21560518 9.1108354,4.35070306 9.1108354,4.76013234 L9.1108354,6.69837331 C9.1108354,7.08161015 9.1384064,7.21532947 9.16459884,7.28563551 C9.21422663,7.44141163 9.32175352,7.53377447 9.46098704,7.53377447 L9.46098704,7.53377447 Z M3.99090157,10.9263854 L4.94347946,10.9263854 L4.94347946,16.2779156 L5.94017094,16.2779156 L5.94017094,10.9263854 L6.89274883,10.9263854 L6.89274883,9.91315136 L3.99090157,9.91315136 L3.99090157,10.9263854 Z M8.70140612,14.4527157 C8.70140612,15.0234353 8.68624207,15.1695616 8.67521368,15.2288393 C8.63799283,15.3791012 8.51943755,15.4700855 8.35263303,15.4700855 C8.18996416,15.4700855 8.07692308,15.3846154 8.03970223,15.2384891 C8.02315964,15.18059 8.00799559,15.0344637 8.00799559,14.4913151 L8.00799559,11.4474773 L7.05955335,11.4474773 L7.05955335,14.7601323 C7.05955335,15.2012683 7.07058175,15.4921423 7.08161015,15.6327543 C7.09263854,15.7664737 7.12985939,15.8960573 7.18362283,16.0201268 C7.22635787,16.1276537 7.30217811,16.2145023 7.39867659,16.2779156 C7.49655363,16.3427075 7.62475875,16.3757927 7.78191343,16.3757927 C7.91563275,16.3757927 8.03418803,16.3427075 8.13068652,16.2724014 C8.23959195,16.2034739 8.33057623,16.0904329 8.40639647,15.9387924 L8.70140612,16.0146126 L8.69175627,16.2834298 L9.64984836,16.2834298 L9.64984836,11.4474773 L8.70140612,11.4474773 L8.70140612,14.4527157 Z M12.881169,11.6956162 C12.8274056,11.5936035 12.7515853,11.5177833 12.6550868,11.4585057 C12.5516956,11.399228 12.4234905,11.3730356 12.2773642,11.3730356 C12.1588089,11.3730356 12.0512821,11.399228 11.9437552,11.4640199 C11.8362283,11.5343259 11.7397298,11.6363386 11.647367,11.7769506 L11.356493,12.2180866 L11.356493,9.91315136 L10.4149435,9.91315136 L10.4149435,16.2779156 L11.3082437,16.2779156 L11.3620072,15.9925558 L11.4378274,15.5996691 L11.647367,15.9387924 C11.7397298,16.0904329 11.8417425,16.2034739 11.9492694,16.2779156 C12.0512821,16.3482217 12.1588089,16.3813069 12.2773642,16.3813069 C12.4441687,16.3813069 12.5847808,16.3220292 12.7033361,16.2089881 C12.8329198,16.0849187 12.9073615,15.9498208 12.9459608,15.7775021 C12.9776675,15.5941549 12.9997243,15.3032809 12.9997243,15.3198235 L12.9997243,12.7943204 C12.9997243,12.8053488 13.0369451,12.5406672 12.9776675,12.0237111 C12.9721533,11.91067 12.9349325,11.8031431 12.881169,11.6956162 L12.881169,11.6956162 Z M12.0567963,14.500965 C12.0567963,14.9489937 12.0347395,15.0882272 12.0140612,15.1585332 C11.9713262,15.3143093 11.8582851,15.4066722 11.7121588,15.4066722 C11.5674111,15.4066722 11.45437,15.3198235 11.4047422,15.1695616 C11.384064,15.0992556 11.3620072,14.9641577 11.3620072,14.5547284 L11.3620072,13.2740557 C11.3620072,12.8425696 11.384064,12.7129859 11.4006066,12.6495726 C11.4433416,12.5089606 11.5563827,12.4234905 11.7011304,12.4234905 C11.8527709,12.4234905 11.965812,12.5144748 12.008547,12.6647367 C12.0306038,12.7350427 12.0567963,12.8701406 12.0567963,13.2740557 L12.0567963,14.500965 Z M14.6360629,14.0060656 L16.2682658,14.0060656 L16.2682658,13.4835953 C16.2682658,13.0038599 16.2255307,12.4607113 16.1331679,12.2070582 C16.053212,11.9602978 15.9125999,11.7714364 15.7085746,11.6253102 C15.5086849,11.4860766 15.2453819,11.4102564 14.9269369,11.4102564 C14.6691481,11.4102564 14.4430659,11.4695341 14.2486904,11.5880893 C14.0488007,11.7121588 13.9150813,11.8789633 13.8282327,12.1050455 C13.7372484,12.3421561 13.6945134,12.6812793 13.6945134,13.2795699 L13.6945134,14.7656465 C13.6945134,14.9531293 13.7151916,15.2384891 13.753791,15.4218362 C13.7910119,15.5996691 13.8668321,15.7664737 13.9688448,15.9125999 C14.0598291,16.0518335 14.2004411,16.1703888 14.3782741,16.2517232 C14.5602426,16.3316791 14.7766749,16.3757927 15.0137855,16.3757927 C15.2605459,16.3757927 15.4659498,16.3316791 15.6217259,16.2517232 C15.7775021,16.1703888 15.9070857,16.0421836 16.0090984,15.8740006 C16.1221395,15.7016818 16.1869313,15.5348773 16.2200165,15.3846154 C16.2517232,15.2288393 16.2627516,14.9917287 16.2627516,14.6898263 L16.2627516,14.4637441 L15.3846154,14.4637441 L15.3846154,14.9862145 C15.3846154,15.2605459 15.3680728,15.4383788 15.3308519,15.5459057 C15.2770885,15.6975462 15.153019,15.7775021 14.9862145,15.7775021 C14.846981,15.7775021 14.7380755,15.707196 14.6843121,15.5831266 C14.6636339,15.5252275 14.6360629,15.416322 14.6360629,15.082713 L14.6360629,14.0060656 Z M14.6360629,13.3278191 L14.6360629,12.783292 C14.6360629,12.3793769 14.6581197,12.4441687 14.6746623,12.3904053 C14.7173973,12.2608216 14.8304384,12.1808657 14.9862145,12.1808657 C15.1323408,12.1808657 15.2398677,12.2663358 15.2826027,12.4069479 C15.2991453,12.4662255 15.3198235,12.4069479 15.3198235,12.783292 L15.3198235,13.4835953 L14.6360629,13.4835953 L14.6360629,13.3278191 Z" id="Fill-1"></path>
                        </g>
                    </g>
                </g>
            </g>
        </g>
    </g>
</svg>