<?xml version="1.0" encoding="UTF-8"?>
<svg width="100px" height="34px" viewBox="0 0 100 34" version="1.1" xmlns="http://www.w3.org/2000/svg" xmlns:xlink="http://www.w3.org/1999/xlink">
    <!-- Generator: Sketch 40.1 (33804) - http://www.bohemiancoding.com/sketch -->
    <title>Легковой автомобиль</title>
    <desc>Created with Sketch.</desc>
    <defs></defs>
    <g id="Оформление-и-оплата" stroke="none" stroke-width="1" fill="none" fill-rule="evenodd">
        <g id="Оформление-и-оплата---Трансфер" transform="translate(-548.000000, -247.000000)">
            <g id="Карточка---Эконом" transform="translate(496.000000, 196.000000)">
                <g id="Легковой-автомобиль" transform="translate(102.000000, 68.000000) scale(-1, 1) translate(-102.000000, -68.000000) translate(52.000000, 51.000000)">
                    <g id="Group">
                        <g>
                            <path d="M5.477,18.044 L4.951,18.044 C4.951,18.044 3.496,18.77 3.232,19.732 C2.965,20.689 3.76,20.488 4.951,19.861 C6.141,19.232 6.8,18.044 5.477,18.044 L5.477,18.044 Z" id="Shape"></path>
                            <circle id="Oval" cx="79.256" cy="26.652" r="3.887"></circle>
                            <path d="M51.609,15.268 L48.7,15.268 C48.04,15.268 46.955,16.458 49.877,16.327 C52.798,16.191 52.665,15.268 51.609,15.268 L51.609,15.268 Z" id="Shape"></path>
                            <circle id="Oval" cx="20.305" cy="26.388" r="3.889"></circle>
                            <path d="M65.355,2.979 L57.818,2.979 C57.818,2.979 57.027,10.908 57.027,11.436 C57.027,11.968 71.171,11.436 71.171,11.436 C71.171,11.436 71.567,6.813 70.378,5.093 C69.186,3.374 66.546,2.979 65.355,2.979 L65.355,2.979 Z" id="Shape"></path>
                            <path d="M96.279,11.04 C96.279,11.04 94.297,14.743 94.693,16.062 C95.089,17.38 97.138,16.92 97.208,16.062 C97.273,15.203 97.273,11.04 96.279,11.04 L96.279,11.04 Z" id="Shape"></path>
                            <path d="M44.602,4.165 C41.697,4.96 37.067,8.797 37.067,8.797 L37.067,12.231 C37.067,12.231 53.063,12.231 52.93,11.703 C52.796,11.179 54.381,2.979 54.381,2.979 C52.93,2.979 47.508,3.37 44.602,4.165 L44.602,4.165 Z" id="Shape"></path>
                            <path d="M79.24,19.732 C75.375,19.732 72.241,22.859 72.241,26.726 C72.241,30.593 75.371,33.726 79.24,33.726 C83.107,33.726 86.234,30.593 86.234,26.726 C86.234,22.859 83.104,19.732 79.24,19.732 L79.24,19.732 Z M79.256,30.539 C77.11,30.539 75.369,28.799 75.369,26.65 C75.369,24.501 77.109,22.765 79.256,22.765 C81.406,22.765 83.145,24.5 83.145,26.65 C83.145,28.799 81.398,30.539 79.256,30.539 L79.256,30.539 Z" id="Shape" fill="#9CA6B0"></path>
                            <path d="M20.29,19.466 C16.427,19.466 13.29,22.594 13.29,26.461 C13.29,30.332 16.422,33.461 20.29,33.461 C24.158,33.461 27.288,30.332 27.288,26.461 C27.288,22.594 24.153,19.466 20.29,19.466 L20.29,19.466 Z M20.305,30.275 C18.161,30.275 16.419,28.536 16.419,26.386 C16.419,24.238 18.161,22.497 20.305,22.497 C22.453,22.497 24.194,24.237 24.194,26.386 C24.194,28.536 22.452,30.275 20.305,30.275 L20.305,30.275 Z" id="Shape" fill="#9CA6B0"></path>
                            <path d="M99.191,18.839 C98.728,18.374 98.132,17.781 98.132,17.12 C98.132,16.462 98.132,10.511 97.077,9.592 C96.018,8.663 88.616,9.592 85.973,8.926 C83.329,8.264 75.532,2.962 71.694,1.557 C63.44,-1.463 45.661,1.127 41.959,1.918 C38.257,2.708 25.289,11.139 23.321,11.436 C11.032,13.289 3.363,16.854 2.834,18.044 C2.306,19.238 1.908,19.897 0.849,20.291 C-0.211,20.687 0.849,23.195 0.72,23.99 C0.587,24.785 1.644,23.99 1.644,24.652 L1.644,27.295 L11.821,27.295 C11.821,27.295 12.481,18.572 20.015,18.572 C28.343,18.572 28.604,27.161 28.604,27.161 L28.604,28.747 L70.9,28.747 L70.9,26.77 C70.9,26.77 71.827,18.967 79.56,18.899 C87.292,18.838 87.423,26.77 87.822,26.77 C88.218,26.77 97.599,25.313 98.396,24.389 C99.195,23.466 99.652,19.298 99.191,18.839 L99.191,18.839 Z M4.951,19.861 C3.761,20.484 2.966,20.685 3.232,19.726 C3.496,18.765 4.951,18.042 4.951,18.042 L5.477,18.042 C6.8,18.044 6.141,19.232 4.951,19.861 L4.951,19.861 Z M49.878,16.325 C46.954,16.458 48.041,15.267 48.701,15.267 L51.609,15.267 C52.665,15.268 52.798,16.191 49.878,16.325 L49.878,16.325 Z M68.878,16.325 C65.954,16.458 67.041,15.267 67.701,15.267 L70.609,15.267 C71.665,15.268 71.798,16.191 68.878,16.325 L68.878,16.325 Z M52.93,11.697 C53.063,12.224 37.067,12.224 37.067,12.224 L37.067,8.79 C37.067,8.79 41.697,4.958 44.602,4.158 C47.509,3.363 52.93,2.971 54.381,2.971 C54.383,2.979 52.798,11.173 52.93,11.697 L52.93,11.697 Z M71.169,11.436 C71.169,11.436 57.025,11.964 57.025,11.436 C57.025,10.908 57.816,2.975 57.816,2.975 L65.353,2.975 C66.541,2.975 69.183,3.374 70.374,5.089 C71.564,6.813 71.169,11.436 71.169,11.436 L71.169,11.436 Z M97.208,16.063 C97.141,16.922 95.092,17.382 94.693,16.063 C94.294,14.741 96.279,11.042 96.279,11.042 C97.273,11.04 97.273,15.203 97.208,16.063 L97.208,16.063 Z" id="Shape" fill="#9CA6B0"></path>
                        </g>
                    </g>
                </g>
            </g>
        </g>
    </g>
</svg>