<?xml version="1.0" encoding="UTF-8"?>
<svg width="115px" height="50px" viewBox="0 0 115 50" version="1.1" xmlns="http://www.w3.org/2000/svg" xmlns:xlink="http://www.w3.org/1999/xlink">
    <!-- Generator: Sketch 40.1 (33804) - http://www.bohemiancoding.com/sketch -->
    <title>Микроавтобус</title>
    <desc>Created with Sketch.</desc>
    <defs></defs>
    <g id="Оформление-и-оплата" stroke="none" stroke-width="1" fill="none" fill-rule="evenodd">
        <g id="Оформление-и-оплата---Трансфер" transform="translate(-541.000000, -521.000000)">
            <g id="Микроавтобус" transform="translate(598.500000, 546.000000) scale(-1, 1) translate(-598.500000, -546.000000) translate(541.000000, 521.000000)">
                <g id="Group" fill="#9CA6B0">
                    <path d="M18.4630326,35.6104291 C14.6444042,35.6104291 11.5472569,38.7063898 11.5472569,42.5238315 C11.5472569,46.3436465 14.6432176,49.4396072 18.4630326,49.4396072 C22.2828476,49.4396072 25.3776216,46.3436465 25.3776216,42.5238315 C25.3776216,38.7063898 22.2828476,35.6104291 18.4630326,35.6104291 L18.4630326,35.6104291 Z M18.4630326,46.0956374 C16.4896395,46.0956374 14.89004,44.496038 14.89004,42.5238315 C14.89004,40.5516251 16.4896395,38.9496523 18.4630326,38.9496523 C20.4364257,38.9496523 22.0348385,40.5516251 22.0348385,42.5238315 C22.0348385,44.496038 20.4364257,46.0956374 18.4630326,46.0956374 L18.4630326,46.0956374 Z M83.752322,35.6104291 C79.9336936,35.6104291 76.837733,38.7063898 76.837733,42.5238315 C76.837733,46.3436465 79.9336936,49.4396072 83.752322,49.4396072 C87.5709504,49.4396072 90.6680977,46.3436465 90.6680977,42.5238315 C90.6680977,38.7063898 87.5709504,35.6104291 83.752322,35.6104291 L83.752322,35.6104291 Z M83.752322,46.0956374 C81.7789289,46.0956374 80.1793294,44.496038 80.1793294,42.5238315 C80.1793294,40.5516251 81.7789289,38.9496523 83.752322,38.9496523 C85.7257151,38.9496523 87.3253146,40.5516251 87.3253146,42.5238315 C87.3253146,44.496038 85.7257151,46.0956374 83.752322,46.0956374 L83.752322,46.0956374 Z M112.670897,0.121392798 L41.9977923,0.121392798 C36.0313338,0.121392798 28.2315064,6.36078 28.2315064,6.36078 L3.40923534,26.034192 C1.33735058,27.6207384 0,30.1198158 0,32.9309814 C0,37.7262198 1.49517457,41.6148603 6.290413,41.6148603 L9.8313661,41.5780743 C10.3036514,37.2278283 13.9870021,33.8411392 18.4630326,33.8411392 C22.8797308,33.8411392 26.5227355,37.1364565 27.0721528,41.4060105 L41.9977923,41.4060105 L45.8057408,41.4060105 L75.1432018,41.4060105 C75.6926191,37.1364565 79.3368104,33.8411392 83.752322,33.8411392 C88.1702068,33.8411392 91.8132115,37.1364565 92.3626289,41.4060105 L93.745072,41.4060105 L112.670897,39.5358557 C113.647507,39.5358557 114.439,38.7431758 114.439,37.7653791 L114.439,1.8906827 C114.439,0.912886 113.647507,0.121392798 112.670897,0.121392798 L112.670897,0.121392798 Z M4.49739016,32.1240617 C4.05477103,32.9025018 3.09358738,32.9309814 2.41719888,32.9309814 C1.71589081,32.9309814 1.14392721,32.5666809 1.27327167,31.9163986 C1.40261614,31.267303 1.92355395,28.7717854 3.30125051,27.7583893 C4.68013372,26.7438066 5.04324755,26.8209386 5.22480446,27.4985138 C5.40754801,28.172529 4.93882265,31.3432484 4.49739016,32.1240617 L4.49739016,32.1240617 Z M38.2562959,19.0982433 C38.2562959,20.07604 37.4648027,20.8675332 36.487006,20.8675332 L16.6889961,20.8675332 C15.7954513,20.8675332 14.8698671,19.6322342 16.3626683,18.4218548 C19.4159097,15.9476969 25.0156945,11.4787863 27.8327932,9.13159953 C30.9097675,6.56844313 33.4942836,6.77610626 33.4942836,6.77610626 L36.4858194,6.77610626 C37.4636161,6.77610626 38.2551093,7.56759947 38.2551093,8.54539617 L38.2551093,19.0982433 L38.2562959,19.0982433 Z M68.6854716,19.0982433 C68.6854716,20.07604 67.8916051,20.8675332 66.9161817,20.8675332 L45.7036892,20.8675332 C44.7258925,20.8675332 43.9343993,20.07604 43.9343993,19.0982433 L43.9343993,8.54539617 C43.9343993,7.56759947 44.7258925,6.77610626 45.7036892,6.77610626 L66.9149951,6.77610626 C67.8904185,6.77610626 68.684285,7.56759947 68.684285,8.54539617 L68.684285,19.0982433 L68.6854716,19.0982433 Z M96.1278581,19.0982433 C96.1278581,20.07604 95.3363649,20.8675332 94.3597549,20.8675332 L73.1472624,20.8675332 C72.171839,20.8675332 71.3791591,20.07604 71.3791591,19.0982433 L71.3791591,8.54539617 C71.3791591,7.56759947 72.171839,6.77610626 73.1472624,6.77610626 L94.3597549,6.77610626 C95.3363649,6.77610626 96.1278581,7.56759947 96.1278581,8.54539617 L96.1278581,19.0982433 L96.1278581,19.0982433 Z M111.767859,19.0982433 C111.767859,20.07604 110.976366,20.8675332 109.999756,20.8675332 L100.589649,20.8675332 C99.6130389,20.8675332 98.820359,20.07604 98.820359,19.0982433 L98.820359,8.54539617 C98.820359,7.56759947 99.6130389,6.77610626 100.589649,6.77610626 L109.999756,6.77610626 C110.976366,6.77610626 111.767859,7.56759947 111.767859,8.54539617 L111.767859,19.0982433 L111.767859,19.0982433 Z M28.1530218,38.4209852 C28.303065,38.1704063 31.1811653,37.9851958 34.6048772,38.0009326 L66.018456,38.135301 C69.4694483,38.1498273 72.1565847,38.3616694 71.9929013,38.6122484 C71.883779,38.8604063 68.978398,39.0468273 65.5410459,39.0371431 L34.1274671,38.9015642 C30.690115,38.8858273 28.0438996,38.6739852 28.1530218,38.4209852 L28.1530218,38.4209852 Z" id="Shape"></path>
                </g>
                <path d="M34.1500511,24.4209852 C34.1632255,24.1704063 34.4159348,23.9851958 34.7165511,24.0009326 L37.4747953,24.135301 C37.7778069,24.1498273 38.0137488,24.3616694 37.9993767,24.6122484 C37.9897953,24.8604063 37.7346907,25.0468273 37.4328767,25.0371431 L34.6746325,24.9015642 C34.3728186,24.8858273 34.1404697,24.6739852 34.1500511,24.4209852 L34.1500511,24.4209852 Z" id="Path" fill="#D8D8D8"></path>
                <path d="M44.1500511,24.4209852 C44.1632255,24.1704063 44.4159348,23.9851958 44.7165511,24.0009326 L47.4747953,24.135301 C47.7778069,24.1498273 48.0137488,24.3616694 47.9993767,24.6122484 C47.9897953,24.8604063 47.7346907,25.0468273 47.4328767,25.0371431 L44.6746325,24.9015642 C44.3728186,24.8858273 44.1404697,24.6739852 44.1500511,24.4209852 L44.1500511,24.4209852 Z" id="Path" fill="#D8D8D8"></path>
            </g>
        </g>
    </g>
</svg>